<svg xmlns="http://www.w3.org/2000/svg" viewBox="0 0 750 750"><defs><style>.cls-1,.cls-3,.cls-4,.cls-5{fill:#fff;}.cls-2{fill:none;stroke-linecap:square;stroke-width:10px;}.cls-2,.cls-3,.cls-4,.cls-5{stroke:#000;}.cls-2,.cls-3,.cls-4{stroke-miterlimit:10;}.cls-3,.cls-5{stroke-width:2px;}.cls-4{stroke-width:3px;}.cls-6{font-size:72px;font-family:TimesNewRomanPSMT, Times New Roman;}</style></defs><title>backface_buddy</title><g id="Layer_2" data-name="Layer 2"><g id="Outlines"><g id="Background"><circle class="cls-1" cx="375" cy="375" r="375"/></g><g id="Outside_copy" data-name="Outside copy"><path d="M115.83,561c-1.75.52-4.3,1.16-7.67,1.92L92.73,538.76a60.82,60.82,0,0,1,6.63-4.83c1.19-.73,3.12-1.85,5.79-3.38s4.43-2.55,5.71-3.37a16.29,16.29,0,0,0,5.37-5,7.9,7.9,0,0,0,1.14-3.84,8.49,8.49,0,0,1,.4-2.74q3-.68,9.13-1.76l.88,1.38c-1.48,2-1.48,4.18,0,6.47l10,15.6q2.63,4.11.18,7.79-1.8,2.77-7.77,6.59c-.85.55-2.16,1.35-3.92,2.42s-3.07,1.87-3.93,2.41A73.84,73.84,0,0,0,115.83,561Zm5.88-10.75a42,42,0,0,0,6.42-4.74c2.07-2.1,2.57-4,1.52-5.62l-8.06-12.61c-.25.16-.64.42-1.16.79l-1.17.79c-1.07.68-2.79,1.71-5.15,3.11s-4,2.31-5.13,3.08a63.39,63.39,0,0,0-6.07,4.43l10.24,16q1.38-.88,4.27-2.63T121.71,550.26Z"/><path d="M148.92,564.28q-3.93,3.12-11.14,4.09c-4.22.56-7.43.46-9.63-.32l-.64-1.91q8.44-1,13.11-4.71a8.9,8.9,0,0,0,1.71-1.6,3.46,3.46,0,0,0,.23-3c-.56-1.77-.89-2.91-1-3.41a8.64,8.64,0,0,1-.06-3.57c2-.46,4.89-1.22,8.78-2.29l.83,1a7.16,7.16,0,0,0-.3,6.12,16.63,16.63,0,0,1,1.16,5.15C151.85,561.29,150.83,562.77,148.92,564.28Z"/><path d="M168.32,588q-7.37,6.91-18.74,8.09a70.84,70.84,0,0,1-9.76-.66c-5.07-.54-8.32-1-9.77-1.33l.26-1.34q2.31-1.8,7-4.82l7.84,1.6a30.15,30.15,0,0,0,8.24.59,11.9,11.9,0,0,0,7.11-3.07q4.4-4.12,1.13-7.6l-9.14-9.74a3.52,3.52,0,0,1-.78-3.55,6.7,6.7,0,0,1,2-3.23c.37-.35,1-.83,1.77-1.45s1.44-1.15,1.91-1.59a29.42,29.42,0,0,0,5.21-6.51l8.42-1.17.86,1a11.54,11.54,0,0,1-3,4.29,27.41,27.41,0,0,1-3.76,2.93,24.47,24.47,0,0,0-3.09,2.3c-1.16,1.1-1.74,2-1.73,2.67a3.62,3.62,0,0,0,1.16,1.84l7.46,8c2,2.13,3,4.06,3.16,5.81Q172.23,584.29,168.32,588Z"/><path d="M183.91,599.55q-3.36,3.74-10.3,5.89-6.11,1.89-9.55,1.3l-.95-1.79q8.16-2.4,12.14-6.83a8.74,8.74,0,0,0,1.42-1.85,3.5,3.5,0,0,0-.27-3c-.85-1.65-1.36-2.72-1.55-3.19a8.76,8.76,0,0,1-.65-3.51q2.79-1.17,8.27-3.73l1,.89a7.21,7.21,0,0,0,.73,6.09,16.61,16.61,0,0,1,2,4.88Q186.36,596.84,183.91,599.55Z"/><path d="M184.87,635q-2.15.39-6.32,1.53l-1.11-.87a48,48,0,0,1,5.75-10.39c.53-.68.64-1.14.32-1.39s-.74-.16-1.33.22A25,25,0,0,1,174,628a12.27,12.27,0,0,1-9.13-1.63,75.21,75.21,0,0,1,6.6-6.77,27.6,27.6,0,0,0,13.83.18q1.42-.33,3.8-3.38c2-2.5,3-4.59,3.05-6.24a9.89,9.89,0,0,0-1.76-4.87c-1-1.6-1.56-2.62-1.76-3.07a8.71,8.71,0,0,1-.88-3.45q2.7-1.35,8-4.29l1.05.82a7.21,7.21,0,0,0,1.15,6,35.38,35.38,0,0,1,2.93,5.19,5.84,5.84,0,0,1-1.33,5.48q-1,1.26-2.89,3.48c-1.26,1.47-2.16,2.55-2.69,3.23a50.26,50.26,0,0,0-5,8.08Q186.92,630.91,184.87,635Z"/><path d="M211.25,652.81l-6.5,1.84-1.24-.8c1.36-2.62,2.68-4.93,4-6.91q.72-1.12,4-6.35c2.19-3.49,3.51-5.59,4-6.32a14,14,0,0,0,2.45-5.63q.3-3.12-2.9-5.17l-5.68-3.66a40.87,40.87,0,0,1-4.47-3.15,5.11,5.11,0,0,1-2-4.26l7.85-5.36,1.25.8a4,4,0,0,0,1,4,19.75,19.75,0,0,0,3.9,3l5.65,3.64c2.5,1.61,3.86,3.26,4.1,5q.49,3.43-3.75,10-.39.6-2.59,3.81-1.87,2.7-3.06,4.69Q215.68,644.38,211.25,652.81Z"/><path d="M271.83,676.94c-1.13,1.43-2.85,3.44-5.15,6L240.1,672.18a62,62,0,0,1,2.62-7.77c.54-1.29,1.47-3.33,2.76-6.12q1.85-3.93,2.7-6a16.46,16.46,0,0,0,1.5-7.16,7.87,7.87,0,0,0-1.3-3.79,9,9,0,0,1-1.26-2.47q2.1-2.31,6.43-6.72l1.51.61a5.32,5.32,0,0,0,3.74,5.3L276,645c3,1.22,4.57,3.3,4.66,6.24q.15,3.3-2.52,9.87-.57,1.41-1.8,4.24t-1.8,4.24A74.85,74.85,0,0,0,271.83,676.94Zm-1.44-12.17a41.61,41.61,0,0,0,2.49-7.58q.71-4.37-2-5.46L257,646.11c-.11.28-.28.72-.49,1.32s-.38,1-.5,1.32q-.7,1.77-2.4,5.52-1.64,3.53-2.38,5.48a63.74,63.74,0,0,0-2.4,7.13L266.47,674q.61-1.51,1.95-4.61T270.39,664.77Z"/><path d="M300.71,660.42q-1.41,4.83-6.71,9.79-4.67,4.37-8,5.33l-1.64-1.19q6.3-5.72,8-11.44a9.12,9.12,0,0,0,.47-2.29A3.45,3.45,0,0,0,291.2,658c-1.49-1.12-2.41-1.85-2.79-2.2a8.76,8.76,0,0,1-2.12-2.88c1.34-1.51,3.28-3.82,5.82-7l1.29.38a7.17,7.17,0,0,0,3.3,5.15,16.78,16.78,0,0,1,3.94,3.52C301.36,656.28,301.38,658.08,300.71,660.42Z"/><path d="M317.06,691.89c-1.17.86-2.84,2.25-5,4.14l-1.38-.29a47.7,47.7,0,0,1,.63-11.86c.18-.85.08-1.31-.32-1.4s-.74.18-1.1.78a24.71,24.71,0,0,1-5.68,7,12.26,12.26,0,0,1-8.92,2.53,76.16,76.16,0,0,1,3-9A27.49,27.49,0,0,0,310.78,678q1.13-.91,1.94-4.7,1-4.66,0-6.95a9.85,9.85,0,0,0-3.71-3.6c-1.57-1-2.55-1.68-2.92-2a8.46,8.46,0,0,1-2.3-2.72c1.22-1.6,3-4,5.31-7.35l1.31.28a7.21,7.21,0,0,0,3.67,4.92,34.81,34.81,0,0,1,4.9,3.38,5.86,5.86,0,0,1,1.2,5.52c-.22,1-.58,2.5-1.07,4.38s-.83,3.25-1,4.09a51.42,51.42,0,0,0-1,9.45Q317.12,687.31,317.06,691.89Z"/><path d="M337.83,694.73l-5.18,4.75-1.33-.19q.26-3,1-9.85.34-3.09,1.83-13.84.87-6.29-3.6-8.75-2.43-1.33-3.06-1.77a8.68,8.68,0,0,1-2.5-2.53,50.19,50.19,0,0,1,4.72-7.19l1.26.32a7.31,7.31,0,0,0,4,4.67,21.18,21.18,0,0,1,4.76,3c1.14,1.2,1.55,3,1.23,5.32-.14,1.05-.39,2.54-.75,4.45s-.59,3.31-.71,4.19A148,148,0,0,0,337.83,694.73Z"/><path d="M375.34,682.8a53.52,53.52,0,0,1-4.2,18.37l-16-.73c-1.62-.08-3.65-.08-6.1,0l-4.35.15,2.62-8.08q6.27-.32,8.86-.2l12.29.56a30.28,30.28,0,0,0,.81-7q.36-7.64-1.2-11.06-1.83-4.11-7.33-5.17l-5.4-1-1.17-.05a4.77,4.77,0,0,0-1.8,3.59q-.22,4.79,4.71,7-1.22,2.09-3.28,6.44a11.34,11.34,0,0,1-5-2.63,7.13,7.13,0,0,1-2.48-5.76q.19-4.29,4.47-11.8a69.9,69.9,0,0,1,4.69-7.45l1.41.06c.81,2.2,2.89,3.49,6.22,3.88q8.5,1,11.08,7.75Q375.77,673.83,375.34,682.8Z"/><path d="M420.7,697.8l-5.14,2.81-1.21.15-4.24-32.13c-.15-1.29-.95-1.85-2.38-1.67a50.4,50.4,0,0,0-6.71,1.69l-1.24-1.11.46-6,13.46-5.46,1.7.48,3,26Q419,688.08,420.7,697.8Z"/><path d="M455.56,668.56q2.12,9.45-.68,17.05-2.94,7.88-9.62,9.36-5.81,1.31-10.81-4.18a27.78,27.78,0,0,1-6.31-12.92,30.35,30.35,0,0,1,.82-17.5q3-8.08,9.58-9.55,6.06-1.35,10.54,3.54Q453.45,659,455.56,668.56Zm-5.92,3.36q-1.75-7.87-5.22-11.4-2.87-2.92-6-2.22-7.44,1.65-4,16.94,3,13.63,11,11.86,3.3-.72,4.48-4.85T449.64,671.92Z"/><path d="M496.31,656.61l-34.06,12.2-1.6-4.45,34.06-12.2ZM500,666.9l-34.06,12.2-1.59-4.45,34.06-12.2Z"/><path d="M534.92,650.2l2.61,7.87-17.54,9a68.45,68.45,0,0,0-8.76,5.5l-.66-.64q-.51-2.36-1.68-7.41,1.35-1.63,8.11-5.12l8-4.14-2.76-5.35c-.62-1.21-1.47-3-2.55-5.32-1-2.11-1.81-3.89-2.57-5.36q-1.42-2.78-3.44-2.69a12.58,12.58,0,0,0-4.22,1.62l-5.75,3q-5,2.58-8.54,1-.4-3.09-.91-9.26l1.45-.75a6.49,6.49,0,0,0,7.15.26l5.68-2.92c3-1.55,5.43-2,7.31-1.5q3.06.87,5.5,5.61a64,64,0,0,1,2.84,6.85,63.11,63.11,0,0,0,2.69,6.54c1.33,2.59,2.71,4,4.13,4.3C531.9,651.44,533.19,651.09,534.92,650.2Z"/><path d="M569.18,632.65l-.93,6.75-1.24.84c-1.86-2.3-3.46-4.42-4.78-6.37q-.75-1.11-4.25-6.19c-2.33-3.39-3.73-5.44-4.22-6.16a13.53,13.53,0,0,0-4.25-4.44c-1.84-1-3.79-.78-5.87.63l-9.16,6.21a40.19,40.19,0,0,1-4.66,2.89,5.12,5.12,0,0,1-4.73.21l-1.89-9.3,1.23-.84a4.06,4.06,0,0,0,4.38.49,56.05,56.05,0,0,0,7.61-4.66L542,609q3.69-2.51,6.16-1.84,3.38.9,7.77,7.39.4.6,2.49,3.88c1.19,1.83,2.23,3.39,3.12,4.65Q563.13,625.29,569.18,632.65Zm-31.34-3.46q1.54,2.82,5.5,8.51,2.61,3.85,6.17,8.84l-1.06,6.29-1.24.83q-5.85-8.35-9.1-13.15a37.84,37.84,0,0,1-2.51-4.24l1.11-6.5Z"/><path d="M566.82,591.48l3.72,7.51a14.36,14.36,0,0,1-3.92,2.37,18.56,18.56,0,0,0,4.32,8.58q3.06,3.69,12.71,10.16a8.88,8.88,0,0,1,.64,3.38,17.48,17.48,0,0,1-.07,3.67l-1.17.68a61.44,61.44,0,0,1-15.18-12.71,12.25,12.25,0,0,1-2.46-4.73,10,10,0,0,0-1.67-3.8,4.61,4.61,0,0,0-3.18-1.74l-2.69.94a6.77,6.77,0,0,1-4-.1c-.29-.91-1-3.75-2.19-8.53l1.3-1q2.15,1.74,7.09-.69Z"/><path d="M619.42,584.76q.23,2.18,1,6.43l-1,1a48,48,0,0,1-9.92-6.54c-.63-.59-1.09-.73-1.36-.43s-.22.73.11,1.34a24.68,24.68,0,0,1,3.21,8.46,12.24,12.24,0,0,1-2.33,9,76.08,76.08,0,0,1-6.24-7.1,27.52,27.52,0,0,0,1.25-13.77q-.22-1.45-3.07-4-3.52-3.23-6-3.52a9.79,9.79,0,0,0-5,1.37c-1.67.85-2.74,1.35-3.2,1.52a8.79,8.79,0,0,1-3.51.61q-1.14-2.8-3.66-8.31l.9-1a7.18,7.18,0,0,0,6.1-.69,36.71,36.71,0,0,1,5.4-2.51,5.84,5.84,0,0,1,5.37,1.75q1.18,1.08,3.24,3.14c1.37,1.38,2.38,2.36,3,2.94a50.59,50.59,0,0,0,7.67,5.62Q615.49,582.41,619.42,584.76Z"/><path d="M632.37,568.3l1.47,6.87-.83,1.06q-2.46-1.74-8-5.83-2.49-1.87-11-8.58-5-3.93-9.37-1.33c-1.59,1-2.61,1.53-3.08,1.75a8.6,8.6,0,0,1-3.44.87,49.31,49.31,0,0,1-3.82-7.71l.92-.92a7.32,7.32,0,0,0,6.07-1.11,21.16,21.16,0,0,1,5-2.61q2.43-.56,5.21,1.63,1.26,1,3.47,2.9c1.47,1.27,2.55,2.18,3.25,2.73A145.61,145.61,0,0,0,632.37,568.3Z"/><path d="M641.05,529.9a53.55,53.55,0,0,1,13.73,12.91l-8.72,13.42q-1.32,2-3.09,5.25c-.68,1.29-1.38,2.56-2.08,3.83L635.25,559q2.89-5.57,4.3-7.74l6.7-10.31a29.53,29.53,0,0,0-5.59-4.23q-6.42-4.15-10.15-4.55-4.47-.51-8.17,3.71L618.71,540l-.64,1a4.84,4.84,0,0,0,2.18,3.37q4,2.61,8.45-.51c.8,1.4,2.1,3.42,3.91,6.08a11.34,11.34,0,0,1-4.82,3,7.11,7.11,0,0,1-6.22-.77q-3.6-2.34-7.92-9.82a69.6,69.6,0,0,1-4-7.82l.76-1.18q3.46.62,6.49-3.41,5.13-6.84,12.3-5.64Q633.51,525,641.05,529.9Z"/><path d="M136.87,129.25,148,152.78l-5.73,6.75-14.08-20.08ZM148.07,116l11.18,23.52-5.73,6.76-14.09-20.08Z"/><path d="M199.46,125.05l-9.85,8.45-8.36-9.76a2.45,2.45,0,0,0-1.95-.91,3.44,3.44,0,0,0-2.21.92c-1.12,1-2,1.79-2.69,2.48s-1.27,1.37-1.8,2l-9.44-11c.51-.58,1.33-1.43,2.46-2.54s2.28-2.16,3.44-3.16q5-4.27,10.31-4a12.13,12.13,0,0,1,8.87,4.42Z"/><path d="M221.35,91.43l10.57,18.92a22.61,22.61,0,0,1,2.69,7.11,13.25,13.25,0,0,1-.29,6.18,13.7,13.7,0,0,1-3,5.2,22.37,22.37,0,0,1-5.62,4.24c-.81.46-1.89,1-3.25,1.68s-2.41,1.15-3.13,1.43l-7.07-12.67a29.85,29.85,0,0,0,2.77-1.2c1.07-.52,1.77-.88,2.12-1.07a8.91,8.91,0,0,0,2.31-1.73,3.23,3.23,0,0,0,.87-1.66,4.13,4.13,0,0,0-.18-1.75,16.1,16.1,0,0,0-1-2l-8.85-15.83c-1.09.7-2.2,1.44-3.34,2.22l-2.36,1.61-.93.52L196.58,89.9q3.07-2.28,9.47-6.24t12.71-7.49a51.24,51.24,0,0,1,12.81-5.41,19.47,19.47,0,0,1,9.54-.16,16.14,16.14,0,0,1,7.58,4.52A42,42,0,0,1,255.05,84l13.54,24.24-11.32,6.33L244.16,91.05a20.56,20.56,0,0,0-2.65-3.76,6.35,6.35,0,0,0-3.51-2,10.52,10.52,0,0,0-5,.37,35.27,35.27,0,0,0-7.3,3.25c-.8.45-1.58.9-2.33,1.34S221.93,91.11,221.35,91.43Z"/><path d="M288.93,78.53l-12.28,4.18-4.14-12.17A2.43,2.43,0,0,0,271,69a3.42,3.42,0,0,0-2.4,0c-1.39.47-2.53.91-3.41,1.31s-1.69.79-2.42,1.18l-4.68-13.73c.69-.35,1.77-.83,3.23-1.44s2.92-1.16,4.37-1.65q6.21-2.11,11,.13a12.07,12.07,0,0,1,6.59,7.4Z"/><path d="M310.59,49.39a22.46,22.46,0,0,1,15.51-9.83,26.42,26.42,0,0,1,9-.06,16,16,0,0,1,7.19,3.26,19.49,19.49,0,0,1,5.25,6.84A37.77,37.77,0,0,1,350.65,60l4.52,27.84-28.62,4.65-2.32-14.32L340,75.55l-2.17-13.33A15.09,15.09,0,0,0,336.62,58a7.37,7.37,0,0,0-2.17-2.75,6.25,6.25,0,0,0-3-1.27,11.09,11.09,0,0,0-3.72,0,10,10,0,0,0-4.42,1.76,11.14,11.14,0,0,0-2.92,3.14,13,13,0,0,0-1.63,4,31.91,31.91,0,0,0-.61,3.85l-2.25,27.39-13.11,2.13,2.58-30.95q0-.3.06-.63c0-.22,0-.42.06-.62l-12-18L307,43.93Z"/><path d="M386.5,37.33l12,20.46a13.65,13.65,0,0,0,5.71-5.35,19,19,0,0,0,2.2-8.31l.34-5.59,13,.78-.34,5.59a23.61,23.61,0,0,1-4.33,13q-3.86,5.22-11.61,8.31L417.5,90.3l-17.21-1L385.77,64.45a12.6,12.6,0,0,0-3.64,4.83,20.71,20.71,0,0,0-1.6,7.21L379.84,88l-12.95-.78.69-11.54a25,25,0,0,1,3.51-11.54,26,26,0,0,1,9.33-8.84l-11.14-19Z"/><path d="M485,110.51l-12.44-4.43.77-8.07c.08-.76.22-1.91.42-3.42s.41-2.71.62-3.61a22.18,22.18,0,0,1-2.76,2.51c-1.27,1-2.23,1.75-2.87,2.21l-8.4,6-14.53-5.18,25.18-16.22a13.53,13.53,0,0,0,2.88-2.49,10.42,10.42,0,0,0,1.87-3.31l.78-2.2a4,4,0,0,0-.3-3.87,8.21,8.21,0,0,0-4-2.59,24.34,24.34,0,0,0-3.76-1c-1.42-.26-2.62-.44-3.59-.53l-.41-.15,4.86-13.66a25,25,0,0,1,4.4.75c1.8.44,3.61,1,5.42,1.63q8,2.88,10.68,8.15t-.13,13l-1.88,5.28a20.94,20.94,0,0,0-.92,3.46c-.18,1.12-.33,2.45-.44,4Z"/><path d="M506.7,122.28l-11.47-6,16.33-31a2.38,2.38,0,0,0,.12-2.14A3.37,3.37,0,0,0,510,81.35c-1.31-.69-2.41-1.21-3.3-1.58s-1.74-.68-2.53-.94L511,66c.73.27,1.82.72,3.27,1.36s2.85,1.32,4.2,2q5.82,3.06,7.51,8.12a12.15,12.15,0,0,1-.84,9.87Z"/><path d="M568,136.36a38.06,38.06,0,0,1-7.86,7.77,17.91,17.91,0,0,1-8.47,3.41,20.54,20.54,0,0,1-9.61-1.38,43.51,43.51,0,0,1-11.2-6.66q-3.65-2.85-8.17-6.85t-6.62-6.15L525,115l.34.27q2.65,2.63,6.35,6t7.92,6.69a23.68,23.68,0,0,0,6.81,4,10.26,10.26,0,0,0,5,.56,7.85,7.85,0,0,0,3.6-1.51,15.14,15.14,0,0,0,2.81-2.79l1.34-1.72a17.36,17.36,0,0,0,2-3.22,7.44,7.44,0,0,0,.62-4,10.63,10.63,0,0,0-1.74-4.78,23.66,23.66,0,0,0-5.56-5.61c-.89-.7-1.83-1.4-2.81-2.12s-2-1.44-3.11-2.19l-1.78,2.29a5.7,5.7,0,0,0-1.43,3.15c0,.92.61,1.88,1.92,2.91a15.6,15.6,0,0,0,1.29.89,3.24,3.24,0,0,0,1.18.51l.34.27L544.34,122c-.6-.3-1.21-.63-1.81-1a24.51,24.51,0,0,1-2.21-1.57q-5.84-4.55-6.57-9.61t3.4-10.38l10.23-13.13q2.86,1.67,7.53,4.85t8.69,6.31a43.87,43.87,0,0,1,9.15,9.18,20.18,20.18,0,0,1,3.74,9,18.3,18.3,0,0,1-1.21,9,37.87,37.87,0,0,1-5.64,9.6Z"/><path d="M620.35,138.16l-25.15,6.75-5.61-6.85,22.29-10.24Zm11,13.4-25.15,6.75-5.61-6.85,22.29-10.24Z"/><path class="cls-2" d="M624,205.06a307.11,307.11,0,0,1,51.29,170.58,311.84,311.84,0,0,1-4.38,52.21"/></g><g id="Inside_copy" data-name="Inside copy"><path class="cls-3" d="M424,611.59C534.09,588,613,489.34,613.1,375c0-133.72-106.65-242.12-238.2-242.12h0c-131.56,0-238.2,108.4-238.2,242.12,0,114.51,79,213.33,189.24,236.87"/><g id="Logo"><path d="M513.47,272.45l57,95.61A8.51,8.51,0,0,1,571,376L517.1,497.32a2.18,2.18,0,0,1-3.91.11l-57-111.63a11,11,0,0,1-1.24-5.06v-5a3.33,3.33,0,0,1,3.33-3.32h56.52a2,2,0,0,1,2,2V398a1.74,1.74,0,0,1-1.74,1.74H499.05a1.31,1.31,0,0,0-1.12,2l14.53,24.78a.65.65,0,0,0,1.16-.08l20.66-48.63a4,4,0,0,0-.23-3.63l-23.49-39.88a1.71,1.71,0,0,0-2.75-.27l-23.54,26.6a2.45,2.45,0,0,1-3.53.15L461.16,342.1a2.48,2.48,0,0,1-.26-3.31L511,272.31A1.53,1.53,0,0,1,513.47,272.45Z"/><path d="M402.34,271.72h39.34a2.05,2.05,0,0,1,2.05,2l4.08,222.06a2.76,2.76,0,0,1-2.76,2.81H421.1a2.44,2.44,0,0,1-2.44-2.41l-3-195.88a2.55,2.55,0,0,0-2.55-2.51h-10a2.51,2.51,0,0,1-2.5-2.43L400,274.12A2.34,2.34,0,0,1,402.34,271.72Z"/><path d="M320.85,271.72h44.53a1.86,1.86,0,0,1,1.85,1.6l32,222.35a2.57,2.57,0,0,1-2.54,2.93H373.43a2.93,2.93,0,0,1-2.9-2.53l-7.4-53.64a1.13,1.13,0,0,0-2.07-.46l-35.3,54.74a4.11,4.11,0,0,1-3.46,1.89H286.59a1.54,1.54,0,0,1-1.32-2.35L353,385.5a3.73,3.73,0,0,0,.51-2.46L342,300.48a1.36,1.36,0,0,0-1.34-1.17H321.18a2.58,2.58,0,0,1-2.59-2.52l-.54-22.2A2.8,2.8,0,0,1,320.85,271.72Z"/><path d="M267.29,271.72h37.54a3.09,3.09,0,0,1,3.08,3l1.8,49.47a2.79,2.79,0,0,1-2.78,2.88H283.08a3.21,3.21,0,0,1-3.21-3.27l.4-20.6a3.51,3.51,0,0,0-3.51-3.59h-9.53a1.24,1.24,0,0,1-1.25-1.21l-.71-24.57A2,2,0,0,1,267.29,271.72Z"/><path d="M224.65,273.17,166.44,385.92a10,10,0,0,0,.17,9.55L224.36,498a1.18,1.18,0,0,0,2.07,0l58.69-115a6.83,6.83,0,0,0-.06-6.34L229.5,273.14A2.77,2.77,0,0,0,224.65,273.17Zm4.23,67.07,23,38.36a6.85,6.85,0,0,1,.3,6.5l-24.74,51a1.17,1.17,0,0,1-2.08.07l-25.32-44.62a4.16,4.16,0,0,1,0-4.1l26.77-47.22A1.17,1.17,0,0,1,228.88,340.24Z"/></g><line class="cls-4" x1="183.34" y1="518.78" x2="566.31" y2="518.78"/><path class="cls-5" d="M433.47,609.92a64.32,64.32,0,1,0-58.57,37.73A64.45,64.45,0,0,0,433.47,609.92Z"/><text class="cls-6" transform="translate(320.9 606.8)">999</text><path d="M580.41,252.53h-411l0,0c41.38-71.6,117.94-119.67,205.54-119.67h0c87.6,0,164.16,48.07,205.54,119.67"/><path d="M39.34,457.55c-.21-.56-.46-1.36-.74-2.39s-.52-2.06-.74-3.05a10.78,10.78,0,0,1-.3-3,4.41,4.41,0,0,1,.63-2.1,3.94,3.94,0,0,1,1.55-1.38,10.48,10.48,0,0,1,2.49-.85l6.67-1.45.36,1.65-6.61,1.44a6.14,6.14,0,0,0-1.72.62,2.71,2.71,0,0,0-1,1,3.46,3.46,0,0,0-.38,1.54,9,9,0,0,0,.24,2.15q.1.56.24,1l.3,1.12,7.57-1.66a5.69,5.69,0,0,1,1.22-.13,2.67,2.67,0,0,1,1.06.2,2.16,2.16,0,0,1,.83.61,2.62,2.62,0,0,1,.49,1.15c0,.19.09.42.13.71a5.63,5.63,0,0,1,.08.69l-1.87.41c0-.19,0-.38,0-.59s-.06-.35-.08-.45a1.34,1.34,0,0,0-.48-.88,1.38,1.38,0,0,0-1-.06l-7.43,1.63c.1.34.19.65.28.92s.16.47.2.59l0,.1Z"/><path d="M46.43,429.26l.27,1.67-9.44,1.52a1.25,1.25,0,0,0-.83.42,1.1,1.1,0,0,0-.17.89c0,.11.05.26.1.46a5.18,5.18,0,0,0,.17.56l-1.89.3c-.06-.16-.11-.38-.18-.66s-.11-.51-.14-.71a2.21,2.21,0,0,1,.47-1.92,3.22,3.22,0,0,1,2-1Z"/><path d="M43.86,409.37l.18,1.68-6.72.74a6.66,6.66,0,0,0-1.78.42,2.66,2.66,0,0,0-1.16.88,3.3,3.3,0,0,0-.54,1.45,8.66,8.66,0,0,0,0,2.16,16.39,16.39,0,0,0,.27,1.68c.11.53.25,1.08.42,1.66v.1l-1.93.21c-.15-.51-.27-1-.38-1.51s-.2-1.15-.3-2a11,11,0,0,1,0-3.07,4.31,4.31,0,0,1,.85-1.95,3.88,3.88,0,0,1,1.7-1.16,10.56,10.56,0,0,1,2.56-.57Z"/><path d="M42.78,395.23l.11,1.69-9.55.57a1.33,1.33,0,0,0-.86.33,1.1,1.1,0,0,0-.26.88c0,.11,0,.26.06.46a4.82,4.82,0,0,0,.1.57l-1.91.12c0-.17-.07-.39-.11-.67s-.06-.53-.07-.73a2.2,2.2,0,0,1,.67-1.87,3.28,3.28,0,0,1,2.1-.76Z"/><path d="M31.47,381.41a4.69,4.69,0,0,1-1.41-1.69,5.86,5.86,0,0,1-.17-4.26A3.33,3.33,0,0,1,31,374a5,5,0,0,1,1.86-.89,11.46,11.46,0,0,1,2.75-.31l6.64,0,0,6.38H40.33l0-4.68-4.78,0a7.11,7.11,0,0,0-1.88.24,3.41,3.41,0,0,0-1.25.64,2.44,2.44,0,0,0-.7,1,3.34,3.34,0,0,0-.21,1.21,3.94,3.94,0,0,0,.25,1.3,3,3,0,0,0,.92,1.18,4.84,4.84,0,0,0,1.35.75,11.41,11.41,0,0,0,1.8.49l6.47,1.17,0,1.74L35,382.82l-.72-.16-.69-.2-3.64,1.86V382.2Z"/><path d="M31,345.82a25.42,25.42,0,0,1,6.66,2.59,11,11,0,0,1,4,3.73,7.38,7.38,0,0,1,.87,2.41,12.58,12.58,0,0,1,.13,3.08l-.19,3.17L30.15,360l.1-1.71,6.6.41a7.61,7.61,0,0,0-.06-1.39,2.38,2.38,0,0,0-.49-1.13,5.16,5.16,0,0,0-1.86-1.41,20.21,20.21,0,0,0-3.89-1.29l.11-1.77a22.88,22.88,0,0,1,4.62,1.58,6.77,6.77,0,0,1,2.33,1.8,3.87,3.87,0,0,1,.73,1.8,10.33,10.33,0,0,1,.07,1.91l2.27.14.1-1.59a11.54,11.54,0,0,0-.07-2.5,5.16,5.16,0,0,0-.66-1.82,9.29,9.29,0,0,0-3.46-3.23,22.43,22.43,0,0,0-5.67-2.25Z"/><path d="M34.28,319.18c0-.6.1-1.43.23-2.5s.3-2.1.48-3.1a11,11,0,0,1,.87-2.91,4.34,4.34,0,0,1,1.39-1.7,4,4,0,0,1,2-.68,10.25,10.25,0,0,1,2.62.17l6.72,1.2-.3,1.66-6.66-1.19a6.07,6.07,0,0,0-1.82-.08,2.61,2.61,0,0,0-1.37.55,3.51,3.51,0,0,0-.94,1.27,8.82,8.82,0,0,0-.6,2.08c-.07.37-.12.72-.17,1.06s-.09.72-.15,1.15l7.63,1.36a5.17,5.17,0,0,1,1.18.34,2.71,2.71,0,0,1,.9.59,2.21,2.21,0,0,1,.54.88,2.72,2.72,0,0,1,0,1.25c0,.19-.08.42-.15.7a5.32,5.32,0,0,1-.19.67l-1.88-.33c.06-.18.12-.36.17-.56a4,4,0,0,0,.1-.45,1.36,1.36,0,0,0-.1-1,1.4,1.4,0,0,0-.93-.44l-7.48-1.33c0,.35-.08.67-.1,1s0,.49,0,.62l0,.09Z"/><path d="M51.62,295.74l-.39,1.64-9.3-2.19a1.3,1.3,0,0,0-.93.07,1.08,1.08,0,0,0-.49.76,4.62,4.62,0,0,0-.08.46c0,.2,0,.39-.07.58l-1.86-.44a6,6,0,0,1,.09-.67c0-.28.09-.52.14-.72a2.24,2.24,0,0,1,1.17-1.6,3.36,3.36,0,0,1,2.23-.13Z"/><path d="M49.41,280.59,49,282.22l-3.47-1a1.29,1.29,0,0,0-.92,0A1.1,1.1,0,0,0,44,282c0,.1-.06.25-.1.45a5.81,5.81,0,0,0-.09.58L42,282.54c0-.17.06-.39.12-.67s.11-.51.16-.71a2.26,2.26,0,0,1,1.24-1.55,3.27,3.27,0,0,1,2.24,0Z"/><path d="M59.24,268.83l-.52,1.61-9.09-2.95a1.29,1.29,0,0,0-.93,0,1.09,1.09,0,0,0-.55.72,2.74,2.74,0,0,0-.12.45,3.82,3.82,0,0,0-.11.57l-1.82-.59a5.32,5.32,0,0,1,.14-.66,7.09,7.09,0,0,1,.2-.7,2.18,2.18,0,0,1,1.3-1.5,3.19,3.19,0,0,1,2.23.06Z"/><path d="M59.86,248a4.42,4.42,0,0,0-3.38-.16,4.73,4.73,0,0,0-2.23,2.83c-.28.74-.53,1.51-.76,2.33l-.5,1.82,0,.09-1.81-.69c.11-.48.29-1.13.55-2s.52-1.61.78-2.3a8.66,8.66,0,0,1,1.39-2.51,4.36,4.36,0,0,1,3.94-1.67,9.26,9.26,0,0,1,2.59.63l.61.24a9.37,9.37,0,0,1,2.36,1.26,4.61,4.61,0,0,1,1.41,1.67,4.81,4.81,0,0,1,.41,2.2,9,9,0,0,1-.65,2.79c-.24.64-.56,1.38-1,2.22s-.69,1.46-.91,1.85L60.87,258l0-.09c.23-.46.52-1,.86-1.73s.67-1.44,1-2.2a4.7,4.7,0,0,0,.22-3.6,4.43,4.43,0,0,0-2.61-2.13Z"/><path d="M64.11,231.82a1,1,0,0,0,0,1,1.79,1.79,0,0,0,.84.7l6.75,3L71,238.08l-6.79-3a2.77,2.77,0,0,1-.81-.53,2.47,2.47,0,0,1-.51-.68,1.65,1.65,0,0,1-.17-.63,1.38,1.38,0,0,1,0-.55l-2.14,1.93-1.89-.84,4.43-4,1.89.85a6.47,6.47,0,0,0-.65.65A2.36,2.36,0,0,0,64.11,231.82Z"/><path d="M66.28,218.9c.17-.48.43-1.13.78-1.94s.71-1.59,1.09-2.33a11,11,0,0,1,1.7-2.53,4.32,4.32,0,0,1,1.79-1.17,4,4,0,0,1,2.07,0,10.68,10.68,0,0,1,2.44.94L82.23,215l-.77,1.51-6-3.1a6.75,6.75,0,0,0-1.71-.62,2.74,2.74,0,0,0-1.46.09,3.15,3.15,0,0,0-1.25.91,7.89,7.89,0,0,0-1.18,1.8,25.13,25.13,0,0,0-1.06,2.33L68,219.7l0,.09Zm5.16.75,6.62,3.41-.77,1.5-6.63-3.4Z"/><path d="M88.34,180.68a6.05,6.05,0,0,1,1.21-1.41,3.85,3.85,0,0,1,1.29-.69,3.06,3.06,0,0,1,1.56-.08,3.9,3.9,0,0,1,1.37.55,7.18,7.18,0,0,1,2.1,2.08,8.55,8.55,0,0,1,1.1,2.66,15.08,15.08,0,0,1,.36,3.06c0,1.06,0,2.17-.08,3.33L95.46,189a16.24,16.24,0,0,0,.14-2.19,11.19,11.19,0,0,0-.2-2.28,7.55,7.55,0,0,0-.77-2.23,4.62,4.62,0,0,0-1.57-1.69,2.31,2.31,0,0,0-.65-.3,1.45,1.45,0,0,0-.85,0,2.12,2.12,0,0,0-.81.43,4.29,4.29,0,0,0-.79.95l-3.37,5.1-4.92-3.24.93-1.41,3.32,2.19Z"/><path d="M107.52,163.94a4.47,4.47,0,0,0-3.2-1.1A4.66,4.66,0,0,0,101.4,165a23.82,23.82,0,0,0-1.38,2c-.44.73-.77,1.26-1,1.61l-.06.08-1.54-1.16c.23-.43.59-1,1.07-1.75s.94-1.39,1.39-2a9,9,0,0,1,2-2,4.39,4.39,0,0,1,4.25-.51,9.55,9.55,0,0,1,2.32,1.34l.51.38a9.52,9.52,0,0,1,1.92,1.87,4.62,4.62,0,0,1,.89,2,4.74,4.74,0,0,1-.21,2.22,8.82,8.82,0,0,1-1.4,2.51c-.41.54-.92,1.16-1.53,1.87s-1.07,1.21-1.39,1.52l-1.54-1.16.06-.08,1.31-1.43a23.32,23.32,0,0,0,1.53-1.84,4.66,4.66,0,0,0,1.22-3.39,4.41,4.41,0,0,0-1.92-2.77Z"/><path d="M103.18,442.92a10.66,10.66,0,0,1,5.55-.3,4.05,4.05,0,0,1,1.62,6.48,10.49,10.49,0,0,1-5,2.37,10.66,10.66,0,0,1-5.57.31,3.64,3.64,0,0,1-2.5-2.81,3.6,3.6,0,0,1,.91-3.68A10.65,10.65,0,0,1,103.18,442.92Zm4.66,1.26a6.82,6.82,0,0,0-1.77.06,22.27,22.27,0,0,0-2.43.51c-.91.23-1.7.47-2.36.71a7.19,7.19,0,0,0-1.6.81,2.33,2.33,0,0,0-.84,1,2.33,2.33,0,0,0,.62,2.45,2.39,2.39,0,0,0,1.25.49,6.42,6.42,0,0,0,1.82-.07c.71-.11,1.51-.28,2.38-.5s1.71-.47,2.33-.68a6.58,6.58,0,0,0,1.59-.81,2.46,2.46,0,0,0,.88-1,2.11,2.11,0,0,0,.05-1.35,2.09,2.09,0,0,0-.67-1.14A2.35,2.35,0,0,0,107.84,444.18Z"/><path d="M95.36,433.15a4.68,4.68,0,0,0,.31,1,7.92,7.92,0,0,0,.5.9,6.17,6.17,0,0,0,.53.69c.18.19.34.36.49.5l0,.11-1.92.38a7.11,7.11,0,0,1-.89-1.49,7.81,7.81,0,0,1-.64-1.89,6.48,6.48,0,0,1-.13-1.64,3.93,3.93,0,0,1,.33-1.36,3.12,3.12,0,0,1,.88-1.11,3.39,3.39,0,0,1,1.39-.59,3,3,0,0,1,2.11.35,3.3,3.3,0,0,1,1.42,1.56l.13,0a5,5,0,0,1,.1-1,3.17,3.17,0,0,1,.41-1,3.07,3.07,0,0,1,.88-.88,3.8,3.8,0,0,1,1.44-.56,4.49,4.49,0,0,1,1.75,0,4.42,4.42,0,0,1,1.54.62,3.94,3.94,0,0,1,1.22,1.25,5.42,5.42,0,0,1,.69,1.84,9,9,0,0,1,.15,2.07,8,8,0,0,1-.26,1.8l-1.92.37,0-.12a7.07,7.07,0,0,0,.5-1.7,5.38,5.38,0,0,0,0-2,4,4,0,0,0-.4-1.09,2.2,2.2,0,0,0-.76-.81,3.15,3.15,0,0,0-1-.39,3.62,3.62,0,0,0-1.25.05,3.18,3.18,0,0,0-1.17.45,1.87,1.87,0,0,0-.63.75,2.38,2.38,0,0,0-.2,1,5.92,5.92,0,0,0,.12,1.15l.15.78-1.51.29-.12-.6a3.32,3.32,0,0,0-1-1.88,2.05,2.05,0,0,0-1.85-.44,1.81,1.81,0,0,0-.84.38,1.65,1.65,0,0,0-.48.62,2,2,0,0,0-.18.83A4.15,4.15,0,0,0,95.36,433.15Z"/><path d="M99,410.51l1.45,10.35-1.47.2-1.45-10.34Z"/><path d="M98.5,395.68a5.23,5.23,0,0,1,1.87.16,4.51,4.51,0,0,1,1.55.77A4.15,4.15,0,0,1,103,398a5,5,0,0,1,.52,1.91,8.65,8.65,0,0,1,0,2,7.53,7.53,0,0,1-.43,1.7l-1.95.17v-.13a5,5,0,0,0,.3-.64,8.83,8.83,0,0,0,.3-.91c.1-.38.17-.72.22-1a4.86,4.86,0,0,0,0-1,3.1,3.1,0,0,0-.29-1.07,2.18,2.18,0,0,0-.72-.85,3,3,0,0,0-1-.44,3.89,3.89,0,0,0-1.3-.07,3.09,3.09,0,0,0-1.19.3,1.89,1.89,0,0,0-.73.64,2.22,2.22,0,0,0-.41,1,5.49,5.49,0,0,0,0,1.3,10.78,10.78,0,0,0,.25,1.49c.12.5.22.9.32,1.2l-7.1.59-.63-7.55,1.62-.14.48,5.77,3.66-.3c0-.22-.08-.44-.11-.66s0-.41-.06-.59a7.57,7.57,0,0,1,0-1.8,4,4,0,0,1,.57-1.46,3.51,3.51,0,0,1,1.2-1.16A5,5,0,0,1,98.5,395.68Z"/><path d="M89.87,384.74a4.24,4.24,0,0,0,.15,1,7.16,7.16,0,0,0,.35,1,5.91,5.91,0,0,0,.41.76c.14.22.27.41.4.58v.11l-2,.06a7.2,7.2,0,0,1-.63-1.62,7.49,7.49,0,0,1-.32-2,5.94,5.94,0,0,1,.14-1.64,4,4,0,0,1,.55-1.28,2.83,2.83,0,0,1,1.05-1,3.45,3.45,0,0,1,1.46-.35,3,3,0,0,1,2,.69,3.36,3.36,0,0,1,1.15,1.77h.13a4.17,4.17,0,0,1,.26-.94,2.79,2.79,0,0,1,.57-.94,2.86,2.86,0,0,1,1-.73,3.89,3.89,0,0,1,1.51-.31,4.4,4.4,0,0,1,3.15,1.13,3.91,3.91,0,0,1,1,1.43,5.26,5.26,0,0,1,.38,1.93,8.54,8.54,0,0,1-.19,2.07,7.84,7.84,0,0,1-.55,1.73l-2,.06v-.13a7.25,7.25,0,0,0,.77-1.6,5.27,5.27,0,0,0,.33-2,3.7,3.7,0,0,0-.21-1.13,2.18,2.18,0,0,0-.62-.94,2.92,2.92,0,0,0-.91-.54,3.52,3.52,0,0,0-1.25-.16,3,3,0,0,0-1.23.26,1.76,1.76,0,0,0-.74.63,2.26,2.26,0,0,0-.36.93,6.13,6.13,0,0,0-.07,1.16l0,.79-1.54,0,0-.61a3.27,3.27,0,0,0-.65-2,2,2,0,0,0-1.75-.73,1.92,1.92,0,0,0-.89.23,1.68,1.68,0,0,0-.58.54,2.13,2.13,0,0,0-.31.78A4.52,4.52,0,0,0,89.87,384.74Z"/><path d="M89.82,368.45a4.33,4.33,0,0,0,.1,1,7.4,7.4,0,0,0,.29,1,4.74,4.74,0,0,0,.37.78c.13.23.25.42.36.6v.11l-2-.05a7.4,7.4,0,0,1-.54-1.65,8.17,8.17,0,0,1-.22-2,6.4,6.4,0,0,1,.23-1.63,4,4,0,0,1,.63-1.25,2.93,2.93,0,0,1,1.09-.9,3.48,3.48,0,0,1,1.49-.27,3,3,0,0,1,2,.8,3.35,3.35,0,0,1,1,1.83h.13a5,5,0,0,1,.31-.92,2.87,2.87,0,0,1,.63-.91,3,3,0,0,1,1-.67,3.91,3.91,0,0,1,1.53-.23,4.46,4.46,0,0,1,1.71.37,4.19,4.19,0,0,1,1.37.94,4,4,0,0,1,.92,1.48,5.39,5.39,0,0,1,.27,1.94,9,9,0,0,1-.3,2.06,8.41,8.41,0,0,1-.65,1.7l-2-.05v-.13a7.27,7.27,0,0,0,.85-1.55,5.11,5.11,0,0,0,.44-2,3.81,3.81,0,0,0-.15-1.14,2.2,2.2,0,0,0-.56-1,2.88,2.88,0,0,0-.89-.59,3.3,3.3,0,0,0-1.24-.23,3,3,0,0,0-1.23.19,1.8,1.8,0,0,0-.78.59,2.37,2.37,0,0,0-.41.91,5.84,5.84,0,0,0-.14,1.15l0,.79-1.54,0,0-.61a3.29,3.29,0,0,0-.54-2.05,2,2,0,0,0-1.71-.83,1.86,1.86,0,0,0-.9.18,1.88,1.88,0,0,0-.61.5,2.44,2.44,0,0,0-.35.77A4.44,4.44,0,0,0,89.82,368.45Z"/><path d="M103.5,348.43l-.69,8.49-1.93-.15q-.8-1-1.53-1.86c-.48-.59-1-1.16-1.52-1.73a16,16,0,0,0-2.6-2.36,4.38,4.38,0,0,0-2.1-.75,2.6,2.6,0,0,0-1,.1,2,2,0,0,0-.76.44,2.15,2.15,0,0,0-.47.71,3,3,0,0,0-.22.93,4.25,4.25,0,0,0,0,1,6.48,6.48,0,0,0,.23,1,4.41,4.41,0,0,0,.32.78c.13.25.24.46.33.61v.1l-2-.15a9.23,9.23,0,0,1-.43-1.64,7.4,7.4,0,0,1-.12-2A4.32,4.32,0,0,1,90.33,349a3.6,3.6,0,0,1,2.85-.86,5.25,5.25,0,0,1,1.48.31,5.6,5.6,0,0,1,1.22.62A8.6,8.6,0,0,1,97,350q.55.53,1.08,1.11c.59.63,1.19,1.33,1.81,2.09l1.47,1.84.54-6.77Z"/><path d="M101,332.15a5.25,5.25,0,0,1,1.9.62,4.31,4.31,0,0,1,1.37,1.14,4.42,4.42,0,0,1,.77,1.51,4.28,4.28,0,0,1,.1,1.72,4.72,4.72,0,0,1-.54,1.65,4,4,0,0,1-1.11,1.21,5.32,5.32,0,0,1-2.15.84,10.2,10.2,0,0,1-3.12,0A13,13,0,0,1,95,340a7.34,7.34,0,0,1-2.35-1.47,5.17,5.17,0,0,1-1.36-2.14,6.26,6.26,0,0,1-.22-2.8c0-.3.1-.59.17-.85a3,3,0,0,1,.24-.68l1.75.24v.09a3.21,3.21,0,0,0-.35.68,4.26,4.26,0,0,0-.25,1,3.61,3.61,0,0,0,.78,2.92,5.67,5.67,0,0,0,3.26,1.71,5.4,5.4,0,0,1-.53-1.43,4.45,4.45,0,0,1,0-1.55,5.56,5.56,0,0,1,.35-1.38,3.71,3.71,0,0,1,.82-1.16,3.57,3.57,0,0,1,1.59-.93A5.56,5.56,0,0,1,101,332.15Zm-.18,1.88a3.78,3.78,0,0,0-1.44,0,2.38,2.38,0,0,0-1.08.58,1.92,1.92,0,0,0-.49.76,4.93,4.93,0,0,0-.22.92,4.22,4.22,0,0,0,0,1.28,5.65,5.65,0,0,0,.4,1.27l.39.08.47.08a7.7,7.7,0,0,0,2.34,0,3.61,3.61,0,0,0,1.42-.52,2.23,2.23,0,0,0,.71-.73,2.19,2.19,0,0,0,.3-.88,2.24,2.24,0,0,0-.55-1.89A3.52,3.52,0,0,0,100.81,334Z"/><path d="M103.8,316.6a5.39,5.39,0,0,1,1.87.71,4.45,4.45,0,0,1,1.29,1.22,4.12,4.12,0,0,1,.69,3.28,4.52,4.52,0,0,1-.63,1.61,3.89,3.89,0,0,1-1.17,1.15,5.29,5.29,0,0,1-2.19.72,10.45,10.45,0,0,1-3.11-.19,13.71,13.71,0,0,1-3.13-1,7.6,7.6,0,0,1-2.26-1.6,5.13,5.13,0,0,1-1.24-2.22,6,6,0,0,1-.06-2.8,7.35,7.35,0,0,1,.21-.84,3.22,3.22,0,0,1,.28-.67l1.74.34,0,.08a3.58,3.58,0,0,0-.39.66,4.22,4.22,0,0,0-.3,1,3.62,3.62,0,0,0,.61,3,5.76,5.76,0,0,0,3.16,1.89,5.91,5.91,0,0,1-.45-1.47,4.48,4.48,0,0,1,0-1.54,5.6,5.6,0,0,1,.42-1.36,3.93,3.93,0,0,1,.88-1.11,3.47,3.47,0,0,1,1.65-.84A5.33,5.33,0,0,1,103.8,316.6Zm-.28,1.86a3.81,3.81,0,0,0-1.45,0,2.38,2.38,0,0,0-1.1.52,1.89,1.89,0,0,0-.54.74,4.47,4.47,0,0,0-.27.9,3.93,3.93,0,0,0,0,1.28,5.29,5.29,0,0,0,.32,1.29l.38.1.47.1a7.63,7.63,0,0,0,2.33.16,3.61,3.61,0,0,0,1.45-.43,2.41,2.41,0,0,0,.75-.69,2.38,2.38,0,0,0,.35-.87,2.28,2.28,0,0,0-.44-1.92A3.58,3.58,0,0,0,103.52,318.46Z"/><path d="M111.76,302.51l-2.07,8.27-1.88-.47-1.2-2.09c-.38-.66-.79-1.31-1.22-2a16.32,16.32,0,0,0-2.17-2.77,4.48,4.48,0,0,0-2-1.08,2.59,2.59,0,0,0-1-.07,2.11,2.11,0,0,0-.82.3,2.22,2.22,0,0,0-.59.63,3.33,3.33,0,0,0-.37.88,4.55,4.55,0,0,0-.12,1,6.81,6.81,0,0,0,.07,1,4.64,4.64,0,0,0,.19.82c.08.27.16.49.22.66l0,.1-1.91-.48a9.77,9.77,0,0,1-.16-1.69,7.53,7.53,0,0,1,.21-1.95A4.26,4.26,0,0,1,98.67,301a3.65,3.65,0,0,1,3-.39,5.75,5.75,0,0,1,1.41.55,5.34,5.34,0,0,1,1.1.82,7.87,7.87,0,0,1,1,1.09c.31.41.6.83.89,1.27.47.72,1,1.51,1.43,2.37s.87,1.54,1.15,2l1.65-6.59Z"/><path d="M111.15,278.62l-.74,2.09-2.49-.88.73-2.09Zm7.28,2.55-.74,2.09-2.49-.87.73-2.09Z"/><path d="M126.75,270.1l-.6,1.49-11-4.4a2.6,2.6,0,0,0-1.78-.25,2.08,2.08,0,0,0-1,1.29,4.19,4.19,0,0,0-.24.82,6.24,6.24,0,0,0-.11.7l0,.08-1.68-.68a4.16,4.16,0,0,1,.19-.94,8.52,8.52,0,0,1,.36-1.08,2.92,2.92,0,0,1,1.76-1.86,4.36,4.36,0,0,1,2.92.33Z"/><path d="M127.54,258.68l-.66,1.46-8.27-3.73a1.24,1.24,0,0,0-.88-.11,1,1,0,0,0-.6.62l-.16.41a5.52,5.52,0,0,0-.16.54l-1.66-.75a5,5,0,0,1,.21-.62c.09-.25.18-.46.26-.64a2.12,2.12,0,0,1,1.38-1.28,3.21,3.21,0,0,1,2.11.29Z"/><path d="M129,241.07a6.23,6.23,0,0,0-1.62-.6,2.55,2.55,0,0,0-1.38.09,3,3,0,0,0-1.2.86,8.57,8.57,0,0,0-1.12,1.71c-.22.44-.41.85-.58,1.26l-.53,1.3,1.75.9a1.17,1.17,0,0,0,1.08.08,2,2,0,0,0,.82-.92c.08-.15.17-.35.28-.61a2.28,2.28,0,0,0,.17-.56l0-.08,1.62.83a4.31,4.31,0,0,1-.25.71,7.24,7.24,0,0,1-.31.68,3.11,3.11,0,0,1-1.73,1.69,3.22,3.22,0,0,1-2.42-.37l-3.32-1.71c.16-.46.4-1.08.74-1.85s.68-1.51,1-2.21a10.66,10.66,0,0,1,1.62-2.41,3.91,3.91,0,0,1,1.7-1.1,3.7,3.7,0,0,1,2,0,10.36,10.36,0,0,1,2.32.89l.8.41a8.72,8.72,0,0,1,2.09,1.44,4.23,4.23,0,0,1,1.16,1.73,4.48,4.48,0,0,1,.17,2.11,8.82,8.82,0,0,1-.91,2.58c-.3.57-.67,1.23-1.13,2s-.8,1.31-1.05,1.65l-1.63-.84,0-.08c.26-.41.6-.92,1-1.55a22,22,0,0,0,1.13-2,4.44,4.44,0,0,0,.59-3.37,4.19,4.19,0,0,0-2.25-2.29Z"/><path d="M131.62,225.69a5.55,5.55,0,0,1,1.09-1.39,3.42,3.42,0,0,1,1.19-.72,3,3,0,0,1,1.48-.15,3.63,3.63,0,0,1,1.32.46,6.83,6.83,0,0,1,2.09,1.89,7.9,7.9,0,0,1,1.16,2.47,14.2,14.2,0,0,1,.48,2.88c.07,1,.09,2.07.07,3.17l-1.75-1a15.58,15.58,0,0,0,0-2.08,11.37,11.37,0,0,0-.29-2.16,7.21,7.21,0,0,0-.84-2.08,4.51,4.51,0,0,0-1.56-1.54,2.59,2.59,0,0,0-.64-.25,1.38,1.38,0,0,0-.8,0,2.08,2.08,0,0,0-.74.44,4.15,4.15,0,0,0-.72.94l-3,5-4.82-2.87.82-1.38,3.25,1.94Z"/><path d="M149.24,209.77a9,9,0,0,1,2,1.8,4.6,4.6,0,0,1,.95,1.9,4.14,4.14,0,0,1-.07,2,7.11,7.11,0,0,1-1,2.08,5.15,5.15,0,0,1-3.5,2.5,6.31,6.31,0,0,1-4.3-1.34l-5.16-3.52.91-1.33,5.14,3.51a4.33,4.33,0,0,0,3,1,3.82,3.82,0,0,0,2.39-1.84,6.08,6.08,0,0,0,.72-1.38,2.58,2.58,0,0,0,.14-1.33,3,3,0,0,0-.62-1.34,6.55,6.55,0,0,0-1.59-1.4l-1.64-1.12a4.3,4.3,0,0,0-1.16-.6,1.92,1.92,0,0,0-.87-.07,1.35,1.35,0,0,0-.66.31,2.81,2.81,0,0,0-.46.52,6.39,6.39,0,0,0-.43.74,5.93,5.93,0,0,0-.27.73l-.05.07-1.52-1a6.73,6.73,0,0,1,.39-.86,10.23,10.23,0,0,1,.57-.94,3,3,0,0,1,1.05-1,2.74,2.74,0,0,1,1.29-.32,4.19,4.19,0,0,1,1.43.27,7,7,0,0,1,1.52.8Z"/><path d="M71.27,450.77a4.55,4.55,0,0,1-1.74-1.35,5.11,5.11,0,0,1-1-2.09,5.32,5.32,0,0,1-.13-2,3.4,3.4,0,0,1,.73-1.62,4.89,4.89,0,0,1,1.63-1.27,11.23,11.23,0,0,1,2.62-.9L79.88,440l1.42,6.21-1.86.43-1-4.57-4.65,1.07a6.83,6.83,0,0,0-1.8.64,3.54,3.54,0,0,0-1.08.9,2.49,2.49,0,0,0-.47,1.1,3.23,3.23,0,0,0,.06,1.23,3.72,3.72,0,0,0,.53,1.21,2.89,2.89,0,0,0,1.14,1,5,5,0,0,0,1.49.44,10,10,0,0,0,1.86.08l6.57-.25.39,1.69-7.44.21h-.75l-.71-.05L70.38,454l-.47-2.07Z"/><path d="M62.7,431l5.83,1.51.24,1.29-5.64-.51Zm.7,3.79,5.84,1.5.24,1.29-5.65-.51Z"/><path d="M74.75,421.61c-.18-.23-.35-.44-.51-.62a4.65,4.65,0,0,0-.55-.53,8.13,8.13,0,0,0-1.46-1,6.86,6.86,0,0,0-2-.66,14.08,14.08,0,0,0-2.68-.21,27.36,27.36,0,0,0-3.86.36l-.25-1.67a28.78,28.78,0,0,1,4.36-.36,14.71,14.71,0,0,1,3.08.31,8.2,8.2,0,0,1,2.17.79,9.11,9.11,0,0,1,1.58,1.08,10.17,10.17,0,0,1,2.45,3,19.52,19.52,0,0,1,1.64,4.3l-2,.29c-.18-.75-.36-1.43-.56-2.05a10.76,10.76,0,0,0-.66-1.67L65,427.58l-.25-1.71Z"/><path d="M72.4,402.12l-.18-1.8,1.91-.19,1.15,11.76-1.91.19-.81-8.28-4.84.47a6.41,6.41,0,0,0-1.63.36,2.7,2.7,0,0,0-1.19.8,3.21,3.21,0,0,0-.65,1.43,7.62,7.62,0,0,0,0,2.23q0,.38.21,1.53a19.13,19.13,0,0,0,.38,1.9v.1l-1.9.19c-.13-.48-.25-1.06-.36-1.73s-.2-1.32-.26-1.94a6.56,6.56,0,0,1,.9-4.69q1.2-1.54,4.32-1.86Z"/><path d="M73.19,377.45l.25,10.8-12.66.29-.11-4.66a10.57,10.57,0,0,1,.29-3A4.09,4.09,0,0,1,62,379a3.9,3.9,0,0,1,1.8-1,10.59,10.59,0,0,1,2.6-.34Zm-1.88,1.74-4.85.11a6.34,6.34,0,0,0-1.8.26,2.67,2.67,0,0,0-1.23.77,3.21,3.21,0,0,0-.67,1.4,8.41,8.41,0,0,0-.18,2.15q0,.66,0,1.38c0,.49,0,1,0,1.55l8.84-.2Z"/><path d="M67.31,370l0,1.69-3.59-.05a1.26,1.26,0,0,0-.89.26,1.08,1.08,0,0,0-.32.86,4.3,4.3,0,0,0,0,.46,5.42,5.42,0,0,0,.06.58l-1.91,0c0-.17,0-.4-.06-.68s0-.53,0-.73a2.24,2.24,0,0,1,.8-1.82,3.27,3.27,0,0,1,2.15-.6Z"/><path d="M62.69,362.49a4.71,4.71,0,0,1-1.31-1.77,5.88,5.88,0,0,1,.07-4.26,3.39,3.39,0,0,1,1.14-1.36,5,5,0,0,1,1.91-.78,11.31,11.31,0,0,1,2.76-.15l6.64.33-.32,6.37-1.91-.1.23-4.68-4.77-.24a6.9,6.9,0,0,0-1.9.14,3.52,3.52,0,0,0-1.28.56,2.53,2.53,0,0,0-.75.93,3.3,3.3,0,0,0-.28,1.2A3.65,3.65,0,0,0,63.1,360a2.86,2.86,0,0,0,.84,1.24,4.82,4.82,0,0,0,1.31.83,11.49,11.49,0,0,0,1.77.58l6.39,1.54-.08,1.74-7.23-1.83c-.26-.06-.5-.13-.71-.2l-.67-.24L61,365.3l.1-2.11Z"/><path d="M74.52,347.15l-.15,1.68L64.85,348a1.27,1.27,0,0,0-.9.2,1.11,1.11,0,0,0-.39.83c0,.11,0,.26,0,.46s0,.39,0,.58l-1.91-.16c0-.17,0-.4,0-.68s0-.53,0-.73a2.22,2.22,0,0,1,.93-1.75,3.26,3.26,0,0,1,2.19-.45Z"/><path d="M74.16,333.1l.22-1.8,1.9.24-1.43,11.73L73,343l1-8.25-4.83-.6a6.73,6.73,0,0,0-1.68,0,2.84,2.84,0,0,0-1.33.52,3.21,3.21,0,0,0-.94,1.26,7.54,7.54,0,0,0-.54,2.16c0,.26-.07.77-.12,1.55s-.07,1.42,0,1.93v.1l-1.9-.23c0-.49,0-1.08,0-1.76s.09-1.33.17-2q.38-3.12,1.89-4.37t4.62-.88Z"/><path d="M65.54,320.61a6,6,0,0,1,.54-1.78,3.69,3.69,0,0,1,.9-1.16,3.16,3.16,0,0,1,1.39-.7,3.92,3.92,0,0,1,1.48-.05A7.13,7.13,0,0,1,72.61,318a8.53,8.53,0,0,1,2.08,2,14.66,14.66,0,0,1,1.56,2.65c.45,1,.87,2,1.27,3.08l-2.11-.36a16.44,16.44,0,0,0-.75-2.06,12.84,12.84,0,0,0-1.1-2A8,8,0,0,0,72,319.55a4.71,4.71,0,0,0-2.12-.92,2.87,2.87,0,0,0-.72,0,1.48,1.48,0,0,0-.77.34,2.33,2.33,0,0,0-.56.72,4.33,4.33,0,0,0-.35,1.2l-1,6-5.82-1,.28-1.67,3.93.67Z"/><path d="M67.67,309.27l6.45-2.69A4.55,4.55,0,0,0,73,304.13a5,5,0,0,0-2.5-1.18l-1.33-.29.36-1.65,1.33.29A6.31,6.31,0,0,1,74,302.92,5.81,5.81,0,0,1,75.54,306l6.06-2.53-.47,2.15-7.77,3.23a4.25,4.25,0,0,0,1.21,1.78,5.44,5.44,0,0,0,2.37,1.05l2.73.6-.36,1.65-2.74-.6A6.8,6.8,0,0,1,73.7,312a6.39,6.39,0,0,1-1.8-2.55l-4.7,2Z"/><path d="M79.55,278.25a8.15,8.15,0,0,1,2.67,1.33,8.36,8.36,0,0,1,1.93,2.05,12.41,12.41,0,0,1,1.3,2.54,21.72,21.72,0,0,1,.88,2.92l-2-.62a12.31,12.31,0,0,0-.51-1.9,8.44,8.44,0,0,0-1-1.9A7.63,7.63,0,0,0,81.38,281a5.47,5.47,0,0,0-2-1.07,2.91,2.91,0,0,0-.72-.1,1.45,1.45,0,0,0-.81.25,2.21,2.21,0,0,0-.64.65,4.12,4.12,0,0,0-.49,1.14l-1.86,6.19L73,287.53l1.85-6.15a6.17,6.17,0,0,1,.75-1.7,4.11,4.11,0,0,1,1-1,3.14,3.14,0,0,1,1.47-.52A3.93,3.93,0,0,1,79.55,278.25Zm9.6,12.38-.48,1.62-11-3.31.48-1.61Z"/><path d="M90.25,273.89l-.54,1.6-9-3.09a1.3,1.3,0,0,0-.93,0,1.09,1.09,0,0,0-.57.71q0,.15-.12.45a5.78,5.78,0,0,0-.12.57l-1.81-.62q0-.25.15-.66a6.84,6.84,0,0,1,.21-.7,2.24,2.24,0,0,1,1.32-1.48,3.36,3.36,0,0,1,2.24.09Z"/><path d="M92.78,266.85l-.58,1.58-9-3.3a1.24,1.24,0,0,0-.92-.05,1.06,1.06,0,0,0-.59.7c0,.1-.08.25-.14.44s-.1.38-.13.57l-1.8-.66c0-.17.09-.39.17-.66s.16-.51.23-.69a2.22,2.22,0,0,1,1.36-1.45,3.26,3.26,0,0,1,2.23.15Z"/><path d="M89.93,257.69l-.62,1.57L86,257.93a1.31,1.31,0,0,0-.92-.07,1.08,1.08,0,0,0-.6.69,3.61,3.61,0,0,0-.15.44c-.06.19-.11.38-.15.56l-1.78-.7c0-.17.1-.39.19-.66s.17-.5.24-.68a2.25,2.25,0,0,1,1.39-1.42,3.35,3.35,0,0,1,2.23.2Z"/><path d="M91.73,237.41a25.81,25.81,0,0,1,5.33,4.76,11,11,0,0,1,2.43,4.89,7.11,7.11,0,0,1,0,2.56,13.2,13.2,0,0,1-1,2.93l-1.29,2.9-11.3-5,.7-1.56,6,2.69a8.12,8.12,0,0,0,.43-1.33A2.31,2.31,0,0,0,93,249a5.12,5.12,0,0,0-1.25-2,20.35,20.35,0,0,0-3.19-2.57l.72-1.61a22,22,0,0,1,3.77,3.09,6.66,6.66,0,0,1,1.56,2.49,3.86,3.86,0,0,1,0,1.94,10.49,10.49,0,0,1-.59,1.82l2.07.93.65-1.46a11.48,11.48,0,0,0,.81-2.37,5.45,5.45,0,0,0,0-1.93,9.44,9.44,0,0,0-2.11-4.24A22.55,22.55,0,0,0,91,239Z"/><path d="M109.79,229.23l-1.09,2.06-2.46-1.3,1.09-2.07Z"/><path d="M115.19,215.77l.9-1.57,1.66,1-5.92,10.23-1.66-1,4.17-7.2-4.21-2.44a6.11,6.11,0,0,0-1.54-.66,2.79,2.79,0,0,0-1.43,0,3.07,3.07,0,0,0-1.36.78,7.9,7.9,0,0,0-1.34,1.78q-.19.33-.72,1.38a18.18,18.18,0,0,0-.8,1.76l0,.08-1.66-1c.18-.47.42-1,.72-1.62s.61-1.18.92-1.72a6.51,6.51,0,0,1,3.46-3.29c1.25-.37,2.79,0,4.6,1Z"/><path d="M121.2,209.69l-1.24,2-2.35-1.49,1.24-2Z"/><path d="M127,201,123.54,206,122,205l2.47-3.67-5.4-3.62a2.72,2.72,0,0,0-1.78-.64,2.17,2.17,0,0,0-1.34,1.1,4.18,4.18,0,0,0-.43.79q-.19.47-.27.69l0,.09-1.59-1.07a5.15,5.15,0,0,1,.4-.94c.21-.39.41-.73.61-1a3.1,3.1,0,0,1,2.22-1.53,4.61,4.61,0,0,1,2.94,1Z"/><path d="M122.77,185.47a6.44,6.44,0,0,1,1.27-1.35,4,4,0,0,1,1.33-.64,3.17,3.17,0,0,1,1.56,0,4,4,0,0,1,1.34.61,7.21,7.21,0,0,1,2,2.18,8.44,8.44,0,0,1,1,2.71,14.7,14.7,0,0,1,.23,3.07c0,1.06-.11,2.17-.25,3.32l-1.72-1.26a16.69,16.69,0,0,0,.24-2.18,11.52,11.52,0,0,0-.09-2.29,7.78,7.78,0,0,0-.67-2.26,4.65,4.65,0,0,0-1.48-1.76,3,3,0,0,0-.65-.33,1.49,1.49,0,0,0-.84,0,2.25,2.25,0,0,0-.83.39,4.32,4.32,0,0,0-.84.92l-3.6,4.94L116,188l1-1.36,3.22,2.34Z"/></g><g id="Bאדי"><path class="cls-1" d="M483.67,182.17c-.11-11.26-18.95-12.88-24.34-13.17H415.55a.93.93,0,0,0-.33,1.79l5.65,2.14a4.65,4.65,0,0,1,2.78,5.77l-17.41,54.12a7.31,7.31,0,0,1-5.16,4.84l-8.07,2a.92.92,0,0,0,.29,1.8h50.78c13.49,0,29.29-7.88,32.67-19.08,2.5-8.27-.82-17.88-17.27-19.95C473.39,200.57,483.77,193.36,483.67,182.17ZM454.46,220c-2.13,11.46-10.42,15.79-14.17,16.75a39.38,39.38,0,0,1-11.25,1c-2.16-.25-2.21-3.27-2-4,0,0,8.27-26.1,9-28.42.34-1.14,8.92-.44,10.92.29S456.58,208.54,454.46,220ZM462,185.54c-1.37,7.5-8.38,13.94-13.29,15.06s-6.12,1.14-9.64.92c-.81-.05-1.44-.66-1.18-1.43l8.45-25.15c.45-1.35,4.22-3.28,9.37-2.48C463.1,173.6,463.14,179.58,462,185.54Z"/><path class="cls-1" d="M362.58,179.88c-2.31.06-10.8,7.93-10.7,11.12s6.86,11.44,7.91,13.38c-2,.66-12.66,5.37-16,12.87s-.72,14.22-1,15.56H339.5c-1.44,0-4.48,4.62-4.53,6.19h19.28s5.16-6.25,5.16-9.78-4-8.34-4.08-12.55c0-3.79,6.76-8.42,6.76-8.42C366.8,215.33,381.46,239,384,239s10.13-4.58,9.75-10.62c-.35-5.51-6.79-12.46-9.75-16.71-.23-.23,12.23-12.9,13-12.92s4.1-.18,5.5-.21c1.77,0,4.85-5.27,4.47-10.34s-10.94-4-12.43-5.32-.75-4-1.58-4c-2.13,0-6,4.46-7.42,7a11.12,11.12,0,0,0-.91,7.16c.33,1.21,2.08,3.75,6.58,5.25-1.47,1.45-6.42,6.44-9.46,9.84C381.75,208.13,365.71,184.47,362.58,179.88Z"/><path class="cls-1" d="M317,208.92c1.41-2.49,8.84-6.9,8.27-8.65s-20.83-.33-30.8-.64c-4.71-.15-6.41-3.14-6.94-5s.71-6.79,2.13-9.37,5.29-7,7.42-7c.83,0-.25,2.81,1.58,4s38.93-.75,40,4.08-1.79,12.85-2.52,13.25-3.55,0-5.66,1.5-3.84,3.46-5.71,9.3c-2.6,8.13-3.11,19-4.15,21.54-1.8,4.33-10.92,7.58-13.13,7.58S315.31,211.89,317,208.92Z"/><path class="cls-1" d="M275.11,185.89c-3-2.7-11.95-1.83-14-2.86s-1.3-4.86-2.14-4.86c-2.12,0-6,4.46-7.41,7a15,15,0,0,0-2.13,9.37c2.3,8.92,14.93,1.73,17.05,7.5.57,1.78-2.06,5.66-5.1,8.65-4.12,4-7.44,6.61-6.84,8.19.89,2.33,5.94-1,10-4.15s10.24-10.71,12.61-16.4S278.13,188.59,275.11,185.89Z"/></g></g></g></svg>