<svg xmlns="http://www.w3.org/2000/svg" viewBox="0 0 750 750"><defs><style>.cls-1{fill:#fff;}.cls-2,.cls-3{fill:none;stroke:#000;}.cls-2{stroke-linecap:square;stroke-miterlimit:10;stroke-width:10px;}.cls-3{stroke-width:7.5px;}.cls-4{direction:ltr;font-size:62px;font-family:TimesNewRomanPSMT, Times New Roman;}</style></defs><title>backface_black</title><g id="Layer_2" data-name="Layer 2"><g id="Outlines"><circle id="Background" class="cls-1" cx="375" cy="375" r="375"/><g id="Outside_copy" data-name="Outside copy"><path d="M136.87,153.25,148,176.78l-5.73,6.75-14.08-20.08ZM148.07,140l11.18,23.52-5.73,6.76-14.09-20.08Z"/><path d="M199.46,149.05l-9.85,8.45-8.36-9.76a2.45,2.45,0,0,0-1.95-.91,3.44,3.44,0,0,0-2.21.92c-1.12,1-2,1.79-2.69,2.48s-1.27,1.37-1.8,2l-9.44-11c.51-.58,1.33-1.43,2.46-2.54s2.28-2.16,3.44-3.16q5-4.28,10.31-4a12.13,12.13,0,0,1,8.87,4.42Z"/><path d="M221.35,115.43l10.57,18.92a22.61,22.61,0,0,1,2.69,7.11,13.25,13.25,0,0,1-.29,6.18,13.7,13.7,0,0,1-3,5.2,22.37,22.37,0,0,1-5.62,4.24c-.81.46-1.89,1-3.25,1.68s-2.41,1.15-3.13,1.43l-7.07-12.67a29.85,29.85,0,0,0,2.77-1.2c1.07-.52,1.77-.88,2.12-1.07a8.91,8.91,0,0,0,2.31-1.73,3.23,3.23,0,0,0,.87-1.66,4.13,4.13,0,0,0-.18-1.75,16.1,16.1,0,0,0-1-2l-8.85-15.83c-1.09.7-2.2,1.44-3.34,2.22l-2.36,1.61-.93.52-7.11-12.73q3.07-2.28,9.47-6.24t12.71-7.49a51.24,51.24,0,0,1,12.81-5.41,19.47,19.47,0,0,1,9.54-.16,16.14,16.14,0,0,1,7.58,4.52,42,42,0,0,1,6.36,8.83l13.54,24.24-11.32,6.33-13.11-23.47a20.56,20.56,0,0,0-2.65-3.76,6.35,6.35,0,0,0-3.51-2,10.52,10.52,0,0,0-5,.37,35.27,35.27,0,0,0-7.3,3.25c-.8.45-1.58.9-2.33,1.34S221.93,115.11,221.35,115.43Z"/><path d="M288.93,102.53l-12.28,4.18-4.14-12.17A2.43,2.43,0,0,0,271,93a3.42,3.42,0,0,0-2.4,0c-1.39.47-2.53.91-3.41,1.31s-1.69.79-2.42,1.18l-4.68-13.73c.69-.35,1.77-.83,3.23-1.44s2.92-1.16,4.37-1.65q6.21-2.12,11,.13a12.07,12.07,0,0,1,6.59,7.4Z"/><path d="M310.59,73.39a22.46,22.46,0,0,1,15.51-9.83,26.42,26.42,0,0,1,9-.06,16,16,0,0,1,7.19,3.26,19.49,19.49,0,0,1,5.25,6.84A37.77,37.77,0,0,1,350.65,84l4.52,27.84-28.62,4.65-2.32-14.32L340,99.55l-2.17-13.33A15.09,15.09,0,0,0,336.62,82a7.37,7.37,0,0,0-2.17-2.75,6.25,6.25,0,0,0-3-1.27,11.09,11.09,0,0,0-3.72,0,10,10,0,0,0-4.42,1.76,11.14,11.14,0,0,0-2.92,3.14,13,13,0,0,0-1.63,4,31.91,31.91,0,0,0-.61,3.85l-2.25,27.39-13.11,2.13,2.58-30.95q0-.3.06-.63c0-.22,0-.42.06-.62l-12-18L307,67.93Z"/><path d="M386.5,61.33l12,20.46a13.65,13.65,0,0,0,5.71-5.35,19,19,0,0,0,2.2-8.31l.34-5.59,13,.78-.34,5.59a23.61,23.61,0,0,1-4.33,13q-3.86,5.22-11.61,8.31l14.12,24.1-17.21-1L385.77,88.45a12.6,12.6,0,0,0-3.64,4.83,20.71,20.71,0,0,0-1.6,7.21L379.84,112l-12.95-.78.69-11.54a25,25,0,0,1,3.51-11.54,26,26,0,0,1,9.33-8.84l-11.14-19Z"/><path d="M485,134.51l-12.44-4.43.77-8.07c.08-.76.22-1.91.42-3.42s.41-2.71.62-3.61a22.18,22.18,0,0,1-2.76,2.51c-1.27,1-2.23,1.75-2.87,2.21l-8.4,6-14.53-5.18,25.18-16.22a13.53,13.53,0,0,0,2.88-2.49,10.42,10.42,0,0,0,1.87-3.31l.78-2.2a4,4,0,0,0-.3-3.87,8.21,8.21,0,0,0-4-2.59,24.34,24.34,0,0,0-3.76-1c-1.42-.26-2.62-.44-3.59-.53l-.41-.15,4.86-13.66a25,25,0,0,1,4.4.75c1.8.44,3.61,1,5.42,1.63q8,2.88,10.68,8.15t-.13,13l-1.88,5.28a20.94,20.94,0,0,0-.92,3.46c-.18,1.12-.33,2.45-.44,4Z"/><path d="M506.7,146.28l-11.47-6.05,16.33-31a2.38,2.38,0,0,0,.12-2.14,3.37,3.37,0,0,0-1.66-1.72c-1.31-.69-2.41-1.21-3.3-1.58s-1.74-.68-2.53-.94L511,90c.73.27,1.82.72,3.27,1.36s2.85,1.32,4.2,2q5.82,3.06,7.51,8.12a12.15,12.15,0,0,1-.84,9.87Z"/><path d="M568,160.36a38.06,38.06,0,0,1-7.86,7.77,17.91,17.91,0,0,1-8.47,3.41,20.54,20.54,0,0,1-9.61-1.38,43.51,43.51,0,0,1-11.2-6.66q-3.65-2.85-8.17-6.85t-6.62-6.15L525,139l.34.27q2.65,2.63,6.35,6t7.92,6.69a23.68,23.68,0,0,0,6.81,4,10.26,10.26,0,0,0,5,.56,7.85,7.85,0,0,0,3.6-1.51,15.14,15.14,0,0,0,2.81-2.79l1.34-1.72a17.36,17.36,0,0,0,2-3.22,7.44,7.44,0,0,0,.62-4,10.63,10.63,0,0,0-1.74-4.78,23.66,23.66,0,0,0-5.56-5.61c-.89-.7-1.83-1.4-2.81-2.12s-2-1.44-3.11-2.19l-1.78,2.29a5.7,5.7,0,0,0-1.43,3.15c0,.92.61,1.88,1.92,2.91a15.6,15.6,0,0,0,1.29.89,3.24,3.24,0,0,0,1.18.51l.34.27L544.34,146c-.6-.3-1.21-.63-1.81-1a24.51,24.51,0,0,1-2.21-1.57q-5.84-4.55-6.57-9.61t3.4-10.38l10.23-13.13q2.86,1.67,7.53,4.85t8.69,6.31a43.87,43.87,0,0,1,9.15,9.18,20.18,20.18,0,0,1,3.74,9,18.3,18.3,0,0,1-1.21,9,37.87,37.87,0,0,1-5.64,9.6Z"/><path d="M620.35,162.16l-25.15,6.75-5.61-6.85,22.29-10.24Zm11,13.4-25.15,6.75-5.61-6.85,22.29-10.24Z"/><path class="cls-2" d="M78.9,427.85a312.8,312.8,0,0,1-4.38-52.21,307.07,307.07,0,0,1,50.59-169.5"/><path class="cls-2" d="M624,205.06a307.11,307.11,0,0,1,51.29,170.58,311.84,311.84,0,0,1-4.38,52.21"/><path d="M92,465.73a20.64,20.64,0,0,1-4.18.71,8.41,8.41,0,0,1-3.24-.43,5.38,5.38,0,0,1-2.33-1.67,9.29,9.29,0,0,1-1.69-6.43,5.33,5.33,0,0,1,1.22-2.62,8.38,8.38,0,0,1,2.6-2,22.75,22.75,0,0,1,8.13-2.15,8.38,8.38,0,0,1,3.23.45,5.35,5.35,0,0,1,2.35,1.71,8.05,8.05,0,0,1,1.42,3,7.86,7.86,0,0,1,.24,3.4,5.3,5.3,0,0,1-1.25,2.61,8.05,8.05,0,0,1-2.61,2A19.64,19.64,0,0,1,92,465.73Zm-1.2-4.52a14.43,14.43,0,0,0,4.53-1.78,2,2,0,0,0-1-3.7,14,14,0,0,0-4.85.68A13.85,13.85,0,0,0,85,458.2a2,2,0,0,0,1,3.69A14.25,14.25,0,0,0,90.81,461.21Z"/><path d="M93.53,482.63a6,6,0,0,1-2.52.28,5.19,5.19,0,0,1-2.27-.82,7.21,7.21,0,0,1-1.86-1.84,10.68,10.68,0,0,1-1.39-2.95,17,17,0,0,1-.8-3.66,12.91,12.91,0,0,1,0-2.65l3.83-1.24.14.43a11.59,11.59,0,0,0-.33,2.63,7.84,7.84,0,0,0,.32,2.54,11.23,11.23,0,0,0,.56,1.36,3,3,0,0,0,.9,1.11,2.55,2.55,0,0,0,.94.41,2.58,2.58,0,0,0,1.31-.16,2,2,0,0,0,1.1-.73,2.06,2.06,0,0,0,.31-1.11,5,5,0,0,0-.21-1.44c-.16-.54-.3-1-.43-1.41l-.25-.76,3.12-1,.22.7a15,15,0,0,0,.55,1.46,3.7,3.7,0,0,0,.66,1.06,1.83,1.83,0,0,0,.87.54,2.06,2.06,0,0,0,1.18-.09,1.48,1.48,0,0,0,.79-.53,1.92,1.92,0,0,0,.33-.78,3.12,3.12,0,0,0,0-1.09,8.74,8.74,0,0,0-.24-1,6.13,6.13,0,0,0-.59-1.28,10,10,0,0,0-.81-1.19,9.55,9.55,0,0,0-.83-.89l-.72-.66-.12-.37,3.79-1.22a17,17,0,0,1,1.55,2.22,15,15,0,0,1,1.38,3.05,12.7,12.7,0,0,1,.61,2.83,6.4,6.4,0,0,1-.16,2.23,3.77,3.77,0,0,1-1,1.81,4.24,4.24,0,0,1-1.8,1.08,4.43,4.43,0,0,1-2.92,0,4.18,4.18,0,0,1-2.21-1.83l-.16.06a6.56,6.56,0,0,1,.07,1.33,3.87,3.87,0,0,1-.36,1.41,3.7,3.7,0,0,1-.91,1.27A4.21,4.21,0,0,1,93.53,482.63Z"/><path d="M100.9,499.32,95,484.05l3-1.16,5.89,15.28Z"/><path d="M107.12,513.8a7.13,7.13,0,0,1-2.65.66,5.73,5.73,0,0,1-2.55-.47,6.8,6.8,0,0,1-2.21-1.54,9.82,9.82,0,0,1-1.81-2.8,17.18,17.18,0,0,1-1.15-3.39,14.43,14.43,0,0,1-.31-2.56l3.69-1.68.17.39c0,.26,0,.56-.08.9a8.73,8.73,0,0,0,0,1.26,9.38,9.38,0,0,0,.16,1.4,6.1,6.1,0,0,0,.47,1.45,7.14,7.14,0,0,0,.81,1.34,2.81,2.81,0,0,0,1.16,1,2.69,2.69,0,0,0,1,.19,2.91,2.91,0,0,0,1.21-.32,2.2,2.2,0,0,0,.91-.7,2.17,2.17,0,0,0,.39-1,3.4,3.4,0,0,0-.14-1.62,11.07,11.07,0,0,0-1.5-3.2,16.47,16.47,0,0,0-1-1.39l-.16-.36,9.5-4.31,5.08,11.2-3.19,1.45-3.27-7.19-2.82,1.28c.12.22.26.48.41.79s.27.55.35.73a10.51,10.51,0,0,1,.78,2.36,6.39,6.39,0,0,1,.07,2.17,4.6,4.6,0,0,1-1,2.26A6.12,6.12,0,0,1,107.12,513.8Z"/><path d="M114.37,529.15a6,6,0,0,1-2.43.71,5.26,5.26,0,0,1-2.38-.41,7.24,7.24,0,0,1-2.15-1.49,10.65,10.65,0,0,1-1.88-2.67,16.35,16.35,0,0,1-1.42-3.46,13.54,13.54,0,0,1-.46-2.62l3.56-1.88.21.4a11.61,11.61,0,0,0,.13,2.65,7.62,7.62,0,0,0,.76,2.44,10.17,10.17,0,0,0,.79,1.25,2.83,2.83,0,0,0,1.07.93,2.49,2.49,0,0,0,1,.24,2.62,2.62,0,0,0,1.26-.37,2,2,0,0,0,.95-.91,2.06,2.06,0,0,0,.12-1.16,4.74,4.74,0,0,0-.46-1.38c-.24-.5-.46-.93-.66-1.31l-.38-.7,2.9-1.53.34.65c.26.5.53,1,.79,1.35a4.54,4.54,0,0,0,.83.93,2,2,0,0,0,1,.38,2.15,2.15,0,0,0,1.15-.29,1.58,1.58,0,0,0,.69-.66,1.87,1.87,0,0,0,.19-.83,3.38,3.38,0,0,0-.23-1.07,8.13,8.13,0,0,0-.41-.94,6.26,6.26,0,0,0-.79-1.16,11,11,0,0,0-1-1,7.91,7.91,0,0,0-1-.73l-.82-.53-.18-.34,3.52-1.86a16.39,16.39,0,0,1,1.91,1.92,14.65,14.65,0,0,1,1.89,2.76,12.69,12.69,0,0,1,1.09,2.68,6.59,6.59,0,0,1,.23,2.23,3.87,3.87,0,0,1-.65,1.95,4.63,4.63,0,0,1-4.47,1.86,4.11,4.11,0,0,1-2.49-1.42l-.16.09a6.32,6.32,0,0,1,.31,1.3,4,4,0,0,1-.11,1.44,3.75,3.75,0,0,1-.68,1.41A4.1,4.1,0,0,1,114.37,529.15Z"/><path d="M123.15,543.77a5.86,5.86,0,0,1-2.39.86,5.19,5.19,0,0,1-2.4-.27,7.24,7.24,0,0,1-2.23-1.35,10.73,10.73,0,0,1-2-2.55,16.66,16.66,0,0,1-1.62-3.37,12.75,12.75,0,0,1-.62-2.58l3.44-2.1.23.39a11.49,11.49,0,0,0,.29,2.63,8,8,0,0,0,.9,2.4,10.18,10.18,0,0,0,.87,1.19,3,3,0,0,0,1.13.87,2.48,2.48,0,0,0,1,.18,2.65,2.65,0,0,0,1.24-.45,2,2,0,0,0,.89-1,2.06,2.06,0,0,0,.05-1.16,5.13,5.13,0,0,0-.54-1.35l-.75-1.27-.41-.68,2.79-1.7.38.63c.3.48.59.92.88,1.3a4,4,0,0,0,.88.87,1.88,1.88,0,0,0,1,.33,2.1,2.1,0,0,0,1.13-.36,1.49,1.49,0,0,0,.65-.7,1.86,1.86,0,0,0,.13-.84,3,3,0,0,0-.28-1.05c-.17-.37-.33-.68-.47-.92a6.43,6.43,0,0,0-.87-1.11,10.89,10.89,0,0,0-1.07-1,8.43,8.43,0,0,0-1-.67l-.85-.47-.2-.33,3.4-2.07a15.83,15.83,0,0,1,2,1.8,14.25,14.25,0,0,1,2,2.64,12.69,12.69,0,0,1,1.25,2.61,6.77,6.77,0,0,1,.37,2.21,3.9,3.9,0,0,1-.54,2,4.34,4.34,0,0,1-1.49,1.46,4.44,4.44,0,0,1-2.85.66,4.12,4.12,0,0,1-2.57-1.26l-.15.09a6.29,6.29,0,0,1,.38,1.28,4.07,4.07,0,0,1-.61,2.9A4.1,4.1,0,0,1,123.15,543.77Z"/><path d="M128.46,561.42l-7.81-11.2,2.49-1.73c1.42.42,2.72.78,3.91,1.07s2.29.51,3.29.66a13.42,13.42,0,0,0,3.2.18,4.56,4.56,0,0,0,2.18-.77,2.54,2.54,0,0,0,1.19-1.78,3.07,3.07,0,0,0-.66-2.16,4.89,4.89,0,0,0-.91-1,10.36,10.36,0,0,0-1.1-.8,7.49,7.49,0,0,0-1.1-.55l-.76-.3-.2-.3,3.33-2.31a12.52,12.52,0,0,1,2,1.58,14.17,14.17,0,0,1,2.16,2.41,7.52,7.52,0,0,1,1.66,5,5.18,5.18,0,0,1-2.43,3.76,7.24,7.24,0,0,1-3.09,1.21,13.4,13.4,0,0,1-4.25-.17c-1-.2-2-.42-2.87-.67l-1.89-.55,4.5,6.46Z"/><path d="M144.11,571.11a6.56,6.56,0,0,1-4.93,1.54,6.87,6.87,0,0,1-4.66-2.82,8.35,8.35,0,0,1-1.43-2.56,5.74,5.74,0,0,1-.26-2.55,7,7,0,0,1,1.16-3,12.94,12.94,0,0,1,2.83-3,16.07,16.07,0,0,1,3.73-2.29,9.23,9.23,0,0,1,3.69-.75,7.65,7.65,0,0,1,3.54,1,11.11,11.11,0,0,1,3.31,2.92,14.51,14.51,0,0,1,1,1.51c.31.53.52.89.62,1.1l-2.86,2.27-.21-.26a6.82,6.82,0,0,0-.38-1.07,6.2,6.2,0,0,0-.9-1.47,4.69,4.69,0,0,0-3-1.93,5.38,5.38,0,0,0-3.49.91,9.25,9.25,0,0,1,1.88.87,6,6,0,0,1,1.6,1.45,6.7,6.7,0,0,1,1,1.64,4.82,4.82,0,0,1-.21,4.11A7.21,7.21,0,0,1,144.11,571.11Zm-5.57-2.5a3.5,3.5,0,0,0,1.12-.17,5,5,0,0,0,1.37-.85,4.31,4.31,0,0,0,1-1.1,2.39,2.39,0,0,0,.34-1.08,2.29,2.29,0,0,0-.21-1,4.51,4.51,0,0,0-1.31-1.66,5.84,5.84,0,0,0-.84-.56l-.34.24-.57.44a9.58,9.58,0,0,0-1.84,1.82,4.11,4.11,0,0,0-.72,1.47,1.86,1.86,0,0,0,0,.94,2.06,2.06,0,0,0,.41.79,1.94,1.94,0,0,0,.65.52A1.84,1.84,0,0,0,138.54,568.61Z"/><path d="M155.44,583.81a6.56,6.56,0,0,1-4.83,1.84,6.83,6.83,0,0,1-4.82-2.53,8.44,8.44,0,0,1-1.59-2.46,5.61,5.61,0,0,1-.42-2.53,7,7,0,0,1,1-3.06,13,13,0,0,1,2.64-3.13,16.17,16.17,0,0,1,3.58-2.51,9,9,0,0,1,3.64-1,7.6,7.6,0,0,1,3.6.76,11.1,11.1,0,0,1,3.48,2.7,14.42,14.42,0,0,1,1.14,1.44c.35.51.58.86.69,1.06l-2.72,2.45-.22-.25a6.41,6.41,0,0,0-.45-1,6.06,6.06,0,0,0-1-1.41,4.67,4.67,0,0,0-3.1-1.74,5.43,5.43,0,0,0-3.43,1.12,9.77,9.77,0,0,1,1.94.75,6.09,6.09,0,0,1,1.68,1.35,6.58,6.58,0,0,1,1.06,1.57,5,5,0,0,1,.46,1.69,5.1,5.1,0,0,1-.41,2.43A7.16,7.16,0,0,1,155.44,583.81Zm-5.71-2.15a3.44,3.44,0,0,0,1.1-.24,4.89,4.89,0,0,0,1.32-.93,4.29,4.29,0,0,0,.95-1.16,2.21,2.21,0,0,0,0-2.12,4.28,4.28,0,0,0-1.41-1.57,4.66,4.66,0,0,0-.88-.51l-.31.26c-.15.12-.33.28-.55.48a9.43,9.43,0,0,0-1.72,1.93,3.92,3.92,0,0,0-.62,1.5,1.83,1.83,0,0,0,.07.94,2.17,2.17,0,0,0,.46.77,2.06,2.06,0,0,0,1.59.65Z"/><path d="M163.21,600.39l-9.75-9.55,2.13-2.17c1.46.16,2.81.27,4,.33s2.34.07,3.36,0a13.76,13.76,0,0,0,3.17-.42,4.47,4.47,0,0,0,2-1.17,2.57,2.57,0,0,0,.84-2,3.17,3.17,0,0,0-1.06-2,5.08,5.08,0,0,0-1.08-.81,11.7,11.7,0,0,0-1.23-.58,7.8,7.8,0,0,0-1.18-.34l-.8-.15-.26-.25,2.84-2.9a12.55,12.55,0,0,1,2.29,1.18,14.14,14.14,0,0,1,2.58,2,7.51,7.51,0,0,1,2.55,4.56,5.19,5.19,0,0,1-1.69,4.15,7.26,7.26,0,0,1-2.81,1.76,13.21,13.21,0,0,1-4.2.62c-1.06,0-2,0-2.95-.11l-2-.2,5.63,5.51Z"/><path d="M183.83,599.86a7.21,7.21,0,0,1,5.55,1.61,8.3,8.3,0,0,1,1.92,2.11,4.91,4.91,0,0,1,.76,2.35,5.94,5.94,0,0,1-.47,2.65,11.51,11.51,0,0,1-1.74,2.84l-5.49,6.8-7.12-5.74,2.82-3.5,3.94,3.17,2.62-3.25a4.76,4.76,0,0,0,.72-1.17,2.3,2.3,0,0,0,.18-1.07,2.08,2.08,0,0,0-.33-1,3.81,3.81,0,0,0-.8-.87,3.2,3.2,0,0,0-1.34-.67,3.37,3.37,0,0,0-1.34,0,4,4,0,0,0-1.28.44,10.74,10.74,0,0,0-1,.65l-6.81,5.12-3.26-2.63,7.71-5.77.15-.12.16-.11,1.61-6.53,3.37,2.72Z"/><path d="M204,608.42l-7,4-2.27-1.62,5.86-4.85Zm4.45,3.17-7,4L199.15,614l5.86-4.85Z"/><path d="M208.49,628.4a10.14,10.14,0,0,0,2.1-.54,8,8,0,0,0,2.07-1.17,14,14,0,0,0,2.17-2,25,25,0,0,0,2.34-3.21l3.46,2.18a30,30,0,0,1-3.27,4.38,17.48,17.48,0,0,1-3,2.66,11.14,11.14,0,0,1-2.82,1.39,13.31,13.31,0,0,1-2.6.55,14.86,14.86,0,0,1-5.45-.44,32.17,32.17,0,0,1-6.18-2.4l2.4-3.8c1,.5,1.84.93,2.64,1.28a18,18,0,0,0,2.26.82l3.12-12.58,3.64,2.29Z"/><path d="M229.92,641.61l2,1.07-2.14,4-14.56-7.89,2.14-4,9,4.87,1.83-3.38a4.55,4.55,0,0,0,.5-1.33,2.22,2.22,0,0,0-.15-1.29,3.62,3.62,0,0,0-1-1.28,10.27,10.27,0,0,0-2-1.33q-.81-.43-2.37-1.14c-1-.47-1.73-.77-2.09-.9l-.12-.07,2.14-4c.66.25,1.4.56,2.21.93s1.62.78,2.42,1.21a16.7,16.7,0,0,1,3.6,2.48,6.3,6.3,0,0,1,1.69,2.52,5.28,5.28,0,0,1,.09,2.74,12.75,12.75,0,0,1-1.24,3.13Z"/><path d="M254.74,657.88l-14.47-6.2,6.36-14.88,6.38,2.73a16.65,16.65,0,0,1,3.81,2.13,6.41,6.41,0,0,1,1.92,2.36,5.16,5.16,0,0,1,.34,2.72,12.77,12.77,0,0,1-.95,3.23Zm-2-5.63,1.61-3.75a7,7,0,0,0,.42-1.36,2,2,0,0,0-.19-1.24,3.43,3.43,0,0,0-1.08-1.18,11,11,0,0,0-2.22-1.2l-2.56-1.09-2.93,6.85Z"/><path d="M266.58,654.92l-3.83-1.42,1.38-3.74a.73.73,0,0,0-.05-.66,1.09,1.09,0,0,0-.59-.47c-.44-.16-.81-.28-1.1-.36s-.57-.14-.83-.19l1.57-4.21c.24,0,.6.15,1.07.29s.95.3,1.4.47a4.6,4.6,0,0,1,2.69,2.21,3.74,3.74,0,0,1,.15,3.07Z"/><path d="M276,650.73a7.06,7.06,0,0,1,2.7-.85,7.21,7.21,0,0,1,3.05.33,8.62,8.62,0,0,1,2.56,1.27,5,5,0,0,1,1.56,1.92,6,6,0,0,1,.52,2.63,11.46,11.46,0,0,1-.59,3.29l-2.65,8.32-8.72-2.77,1.36-4.28,4.82,1.53,1.27-4a4.48,4.48,0,0,0,.24-1.35,2.3,2.3,0,0,0-.22-1.07,2,2,0,0,0-.66-.77,3.68,3.68,0,0,0-1-.52,3.12,3.12,0,0,0-1.49-.14,3.38,3.38,0,0,0-1.27.45,4,4,0,0,0-1,.88,8.65,8.65,0,0,0-.72,1l-4.49,7.24-4-1.27,5.09-8.18.11-.16.1-.17-.86-6.66,4.12,1.31Z"/><path d="M292.89,670.21l-3.95-1.05,2.79-10.49a.74.74,0,0,0-.11-.66,1.09,1.09,0,0,0-.64-.41c-.45-.12-.82-.2-1.12-.25l-.84-.12,1.15-4.34c.25,0,.61.1,1.1.19s1,.21,1.44.33a4.66,4.66,0,0,1,2.88,2,3.72,3.72,0,0,1,.45,3Z"/><path d="M311.12,669.81l2.18.48-1,4.39-16.18-3.55,1-4.39,10,2.19.82-3.75a4.41,4.41,0,0,0,.11-1.42,2.19,2.19,0,0,0-.49-1.19,3.71,3.71,0,0,0-1.3-1,10.15,10.15,0,0,0-2.27-.72c-.6-.13-1.46-.28-2.59-.45s-1.88-.26-2.25-.29l-.14,0,1-4.39c.7,0,1.49.14,2.38.28s1.77.3,2.66.49a16.6,16.6,0,0,1,4.14,1.38,6.24,6.24,0,0,1,2.32,2,5.09,5.09,0,0,1,.85,2.6,13,13,0,0,1-.33,3.36Z"/><path d="M325.27,660.81a9.62,9.62,0,0,1,3,.91,5.29,5.29,0,0,1,1.83,1.47,4,4,0,0,1,.83,1.79,5.75,5.75,0,0,1,0,1.94,7.62,7.62,0,0,1-1.38,3.38,10.43,10.43,0,0,1-2.64,2.48,20.18,20.18,0,0,1-3.69,1.86c-1.38.54-2.85,1.05-4.42,1.52l.74-4.57c.86-.23,1.7-.51,2.53-.82a14.13,14.13,0,0,0,2.28-1.08,7.49,7.49,0,0,0,1.7-1.32,2.79,2.79,0,0,0,.72-1.39,1.49,1.49,0,0,0,0-.6,1,1,0,0,0-.31-.49,2,2,0,0,0-.68-.38,6.51,6.51,0,0,0-1-.24L316.64,664l1.52-9.46,4,.66-.81,5Z"/><path d="M340.09,662.82l3.51,6.49a4.22,4.22,0,0,0,1.87-1.57,5.77,5.77,0,0,0,.8-2.54l.18-1.73,4.07.42-.18,1.72a7.17,7.17,0,0,1-1.53,4,8.07,8.07,0,0,1-3.76,2.41l4.14,7.65-5.41-.55-4.26-7.88a3.86,3.86,0,0,0-1.21,1.45,6.12,6.12,0,0,0-.59,2.21l-.37,3.56-4.07-.42.36-3.56a7.54,7.54,0,0,1,1.26-3.52,8.07,8.07,0,0,1,3.05-2.61l-3.27-6Z"/><path d="M365.78,685.56l-4.09-.07.25-14.29,4.1.08ZM377.23,670a9.7,9.7,0,0,1-.65,3.4,10.23,10.23,0,0,1-1.77,2.9,14.28,14.28,0,0,1-2.81,2.5,24.61,24.61,0,0,1-3.71,2.09l.08-4.63a11,11,0,0,0,2.1-1.16,7.71,7.71,0,0,0,1.52-1.42,5.77,5.77,0,0,0,.84-1.47,4.55,4.55,0,0,0,.3-1.56,1.4,1.4,0,0,0-.11-.6,1,1,0,0,0-.37-.44,2.22,2.22,0,0,0-.73-.28,7,7,0,0,0-1.07-.09L362,669l.08-4.49,8.7.16a9.65,9.65,0,0,1,3.07.48,5.42,5.42,0,0,1,2,1.2,4,4,0,0,1,1.07,1.65A5.75,5.75,0,0,1,377.23,670Z"/><path d="M386.29,680.35l-4.09.11-.28-10.85a.74.74,0,0,0-.3-.6,1.06,1.06,0,0,0-.72-.21,11,11,0,0,0-1.15.07l-.84.13-.12-4.49c.24,0,.61-.09,1.11-.13s1-.08,1.47-.09a4.6,4.6,0,0,1,3.32,1.06,3.72,3.72,0,0,1,1.29,2.79Z"/><path d="M396,679.88l-4.08.23-.6-10.84a.74.74,0,0,0-.31-.59,1.1,1.1,0,0,0-.73-.19c-.47,0-.85.06-1.15.1s-.58.1-.84.16l-.24-4.49c.24,0,.61-.1,1.1-.16s1-.1,1.47-.13a4.59,4.59,0,0,1,3.35,1,3.71,3.71,0,0,1,1.36,2.76Z"/><path d="M405,672.29l-4.08.34-.33-4a.74.74,0,0,0-.33-.58,1,1,0,0,0-.73-.17,11,11,0,0,0-1.15.14c-.3.05-.58.11-.83.17l-.37-4.47c.24-.06.6-.12,1.1-.19s1-.14,1.46-.18a4.63,4.63,0,0,1,3.37.87,3.7,3.7,0,0,1,1.45,2.71Z"/><path d="M413,671.14l.36,2.69.77-.1a13.49,13.49,0,0,0,3.06-.73,6.15,6.15,0,0,0,2.06-1.28,9.4,9.4,0,0,0,2.5-4.28,29.08,29.08,0,0,0,1-6.27l4.07-.54a31.88,31.88,0,0,1-1.65,9,14.16,14.16,0,0,1-3.77,5.95,9.43,9.43,0,0,1-2.84,1.69,16.86,16.86,0,0,1-3.91.94l-4.78.64-2.09-15.66,4.06-.54.66,5a3.54,3.54,0,0,0,1.06-.28,2.74,2.74,0,0,0,.82-.58,3.81,3.81,0,0,0,.86-1.73,13.42,13.42,0,0,0,.3-2.87l4.07-.54a17.53,17.53,0,0,1-.86,4.91,7.28,7.28,0,0,1-1.62,2.79,5.81,5.81,0,0,1-1.9,1.27A8.81,8.81,0,0,1,413,671.14Z"/><path d="M444.39,673.21l-4.33.89-1-4.8,4.33-.9Z"/><path d="M460.39,664.74l2.17-.55,1.1,4.36L447.6,672.6l-1.1-4.36,9.92-2.5-.94-3.73a4.4,4.4,0,0,0-.54-1.32,2.24,2.24,0,0,0-1-.85,3.87,3.87,0,0,0-1.59-.28,10.78,10.78,0,0,0-2.35.36c-.6.16-1.44.41-2.52.76s-1.8.61-2.15.76l-.13,0-1.1-4.36c.66-.26,1.41-.54,2.26-.81s1.72-.52,2.6-.75a16.81,16.81,0,0,1,4.32-.61,6.21,6.21,0,0,1,2.95.71,5.14,5.14,0,0,1,1.92,2,12.8,12.8,0,0,1,1.21,3.16Z"/><path d="M470.87,666.33l-4.23,1.26-1.4-4.7,4.23-1.26Z"/><path d="M483.16,662.32,474,665.39l-1.39-4.14,5.26-1.77-1.74-5.19a2.05,2.05,0,0,0-.93-1.21,2.22,2.22,0,0,0-1.74,0,8.43,8.43,0,0,0-1.11.49c-.39.2-.73.39-1,.57l-.13,0-1.39-4.14a7.89,7.89,0,0,1,1.24-.67,17.34,17.34,0,0,1,1.66-.65,7.26,7.26,0,0,1,2.4-.39,4.29,4.29,0,0,1,2.09.53,4.62,4.62,0,0,1,1.59,1.45,9.33,9.33,0,0,1,1.08,2.26Z"/><path d="M488.41,643.48a9.62,9.62,0,0,1,3-.73,5.34,5.34,0,0,1,2.33.33,4.11,4.11,0,0,1,1.62,1.12,5.78,5.78,0,0,1,1,1.66,7.51,7.51,0,0,1,.53,3.61,10.4,10.4,0,0,1-1,3.48,20.16,20.16,0,0,1-2.22,3.47q-1.38,1.76-3,3.56L489,655.67c.62-.64,1.2-1.3,1.76-2a13.3,13.3,0,0,0,1.41-2.1,7.12,7.12,0,0,0,.79-2,2.73,2.73,0,0,0-.08-1.57,1.44,1.44,0,0,0-.32-.51,1,1,0,0,0-.52-.26,2,2,0,0,0-.77,0,7,7,0,0,0-1,.32l-7.64,3-3.49-8.92,3.81-1.49,1.86,4.74Z"/><path d="M511.83,637.65l3,6a7,7,0,0,1,.73,2.24,4.05,4.05,0,0,1-.2,1.92,4.17,4.17,0,0,1-1,1.57,7,7,0,0,1-1.83,1.26q-.39.2-1.05.48c-.44.19-.78.33-1,.41l-2-4a9,9,0,0,0,.89-.34l.69-.31a3,3,0,0,0,.75-.51,1,1,0,0,0,.3-.51,1.2,1.2,0,0,0,0-.54,3.55,3.55,0,0,0-.27-.63l-2.51-5-1.08.65-.77.48-.3.15-2-4c.67-.45,1.7-1.06,3.08-1.83s2.76-1.5,4.12-2.18a16.65,16.65,0,0,1,4.11-1.52,6,6,0,0,1,3,.06,5,5,0,0,1,2.3,1.49,12.64,12.64,0,0,1,1.85,2.82l3.85,7.69-3.66,1.83L519,637.8a6.19,6.19,0,0,0-.76-1.2,2,2,0,0,0-1.07-.66,3.36,3.36,0,0,0-1.59.06,10.93,10.93,0,0,0-2.35.92l-.75.39Z"/><path d="M535.18,638.38l-3.56,2L526.26,631a.74.74,0,0,0-.54-.39,1.07,1.07,0,0,0-.74.16,10.44,10.44,0,0,0-1,.61c-.25.17-.48.34-.68.5l-2.22-3.9c.19-.15.5-.36.91-.64s.84-.53,1.26-.77a4.62,4.62,0,0,1,3.42-.63,3.75,3.75,0,0,1,2.46,1.85Z"/><path d="M550,629.25l-3.47,2.18-4.44-7a6.06,6.06,0,0,0-.88-1.11,2,2,0,0,0-1.13-.55,3.4,3.4,0,0,0-1.59.22,10.86,10.86,0,0,0-2.24,1.15c-.68.43-1.4.93-2.14,1.5s-1.4,1.08-2,1.55l-.12.08-2.41-3.82c.49-.41,1.14-.92,2-1.54s1.61-1.16,2.31-1.6a16.64,16.64,0,0,1,3.92-1.93,6.16,6.16,0,0,1,3-.24,5.12,5.12,0,0,1,2.44,1.26A12.3,12.3,0,0,1,545.4,622Z"/><path d="M558.23,623.5l-3.35,2.35L548.65,617a.72.72,0,0,0-.57-.34,1.1,1.1,0,0,0-.72.23,10.89,10.89,0,0,0-.92.69q-.36.3-.63.57l-2.58-3.68c.18-.16.46-.4.85-.72s.78-.6,1.18-.88a4.62,4.62,0,0,1,3.35-1,3.75,3.75,0,0,1,2.62,1.62Z"/><path d="M556.53,607.46a7,7,0,0,1,.82-2.71,7.23,7.23,0,0,1,2-2.34,8.82,8.82,0,0,1,2.48-1.4,5.21,5.21,0,0,1,2.47-.21,6,6,0,0,1,2.47,1.06,11.59,11.59,0,0,1,2.38,2.34l5.38,6.88-7.2,5.64-2.77-3.54,4-3.11-2.58-3.3a4.85,4.85,0,0,0-1-1,2.37,2.37,0,0,0-1-.42,2.09,2.09,0,0,0-1,.11,3.75,3.75,0,0,0-1,.58,3.16,3.16,0,0,0-1,1.16,3.33,3.33,0,0,0-.33,1.3,4,4,0,0,0,.14,1.34,9.27,9.27,0,0,0,.41,1.14l3.45,7.79-3.3,2.59-3.89-8.82-.08-.17-.07-.18-6-3,3.41-2.67Z"/><path d="M576.7,599.66l1.83,2,.57-.52a13.56,13.56,0,0,0,2.09-2.34,6.44,6.44,0,0,0,1-2.24,9.37,9.37,0,0,0-.41-4.94,29.48,29.48,0,0,0-2.75-5.73l3-2.77a31.88,31.88,0,0,1,3.79,8.3,14.22,14.22,0,0,1,.32,7,9.68,9.68,0,0,1-1.36,3,17.62,17.62,0,0,1-2.66,3l-3.56,3.26-10.68-11.64,3-2.77,3.39,3.7a4,4,0,0,0,.72-.84,2.55,2.55,0,0,0,.32-.94,3.63,3.63,0,0,0-.28-1.91,13.12,13.12,0,0,0-1.4-2.53l3-2.77a17.53,17.53,0,0,1,2.11,4.52,7.47,7.47,0,0,1,.27,3.21,6,6,0,0,1-.83,2.13A9.47,9.47,0,0,1,576.7,599.66Z"/><path d="M596.44,573.6l5,4.42a7,7,0,0,1,1.52,1.8,4.06,4.06,0,0,1,.55,1.85,4.27,4.27,0,0,1-.36,1.85,7.18,7.18,0,0,1-1.22,1.85c-.19.22-.46.5-.79.85s-.59.59-.78.75L597,584a9.14,9.14,0,0,0,.7-.65l.51-.54a2.79,2.79,0,0,0,.51-.76,1,1,0,0,0,.08-.58,1.06,1.06,0,0,0-.23-.49,3.19,3.19,0,0,0-.49-.49l-4.22-3.7c-.25.33-.51.66-.76,1l-.53.73-.22.26-3.4-3c.45-.66,1.17-1.61,2.15-2.85s2-2.43,3-3.57a16.62,16.62,0,0,1,3.23-3,6.17,6.17,0,0,1,2.79-1.07,5,5,0,0,1,2.7.51,12.38,12.38,0,0,1,2.78,1.91l6.47,5.66-2.69,3.08L603.13,571a5.77,5.77,0,0,0-1.16-.82,2,2,0,0,0-1.24-.2,3.2,3.2,0,0,0-1.45.65,11.28,11.28,0,0,0-1.82,1.74c-.19.22-.38.43-.55.65Z"/><path d="M618.35,565.35l-2.51,3.23-8.57-6.67a.71.71,0,0,0-.65-.15,1.06,1.06,0,0,0-.62.42c-.29.37-.51.68-.68.94s-.31.5-.43.73l-3.55-2.76c.13-.21.33-.52.61-.94s.57-.81.86-1.19a4.62,4.62,0,0,1,2.92-1.89,3.69,3.69,0,0,1,3,.77Z"/><path d="M618.59,553.43l-2.4,3.31L613,554.4a.75.75,0,0,0-.66-.12,1.12,1.12,0,0,0-.61.44c-.27.38-.48.7-.64,1s-.29.51-.41.74L607,553.79q.16-.33.57-1c.26-.42.54-.83.82-1.22a4.6,4.6,0,0,1,2.85-2,3.73,3.73,0,0,1,3,.67Z"/><path d="M629.47,549.69l-2.29,3.4-9-6.07a.75.75,0,0,0-.66-.11,1.1,1.1,0,0,0-.59.47c-.26.39-.46.71-.61,1s-.27.52-.38.76l-3.73-2.51c.11-.22.29-.55.54-1s.51-.85.78-1.25a4.63,4.63,0,0,1,2.79-2.09,3.77,3.77,0,0,1,3,.57Z"/><path d="M630.17,533.19a4.9,4.9,0,0,0-1.1-.49,2.46,2.46,0,0,0-1.29-.08,3.37,3.37,0,0,0-1.5.77,7.56,7.56,0,0,0-1.55,1.94c-.46.77-1,1.68-1.49,2.73s-1,1.91-1.26,2.58l-.07.11L618,538.42c.28-.64.69-1.49,1.24-2.54s1.1-2,1.66-3a13.79,13.79,0,0,1,2.52-3.21,6.41,6.41,0,0,1,2.67-1.53,5.73,5.73,0,0,1,2.82,0,11.31,11.31,0,0,1,3.16,1.38l.7.42a11.71,11.71,0,0,1,2.68,2.14,5.68,5.68,0,0,1,1.35,2.51,6.59,6.59,0,0,1-.1,3,14.34,14.34,0,0,1-1.68,3.76c-.5.83-1.11,1.77-1.84,2.81s-1.28,1.82-1.67,2.31l-3.87-2.33.07-.12c.48-.62,1-1.36,1.63-2.2s1.2-1.74,1.78-2.71a7.42,7.42,0,0,0,1-2.32,3.31,3.31,0,0,0,0-1.64,2.48,2.48,0,0,0-.66-1.11,5.35,5.35,0,0,0-1-.73Z"/><path d="M635.53,520.56a1.16,1.16,0,0,0-.06,1,2,2,0,0,0,.94.89l7,3.74-1.94,3.61-7-3.76a3.1,3.1,0,0,1-.92-.73,3.17,3.17,0,0,1-.53-.89,2.25,2.25,0,0,1-.14-.86,2.38,2.38,0,0,1,.14-.75l-2.87,2.72L626,523.35l6.32-6,4.13,2.22a6.26,6.26,0,0,0-.52.51A2.61,2.61,0,0,0,635.53,520.56Z"/><path d="M631.93,514.14c.24-.75.61-1.73,1.11-2.95s1-2.39,1.52-3.48a16.51,16.51,0,0,1,2.26-3.74,6.32,6.32,0,0,1,2.42-1.83,5.21,5.21,0,0,1,2.73-.24,12.2,12.2,0,0,1,3.2,1.06l7.78,3.66-1.74,3.7-7.53-3.54a6.41,6.41,0,0,0-1.35-.47,2,2,0,0,0-1.24.15,3.4,3.4,0,0,0-1.22,1,11.23,11.23,0,0,0-1.27,2.18c-.46,1-.93,2.09-1.42,3.35s-.85,2.23-1.1,2.92l-.06.12Zm7.79-.87,8.27,3.9-1.74,3.7L638,517Z"/><path d="M645.41,482.63a9.68,9.68,0,0,1,1.45-2.75,5.37,5.37,0,0,1,1.79-1.53,4.18,4.18,0,0,1,1.91-.47,5.61,5.61,0,0,1,1.91.34,7.59,7.59,0,0,1,3.06,2,10,10,0,0,1,1.94,3.06,19.91,19.91,0,0,1,1.14,4c.28,1.46.49,3,.66,4.63l-4.35-1.58q-.1-1.33-.33-2.64a13.6,13.6,0,0,0-.64-2.44,7.14,7.14,0,0,0-1-1.92,2.84,2.84,0,0,0-1.23-1,1.44,1.44,0,0,0-.59-.1,1.06,1.06,0,0,0-.54.22,2,2,0,0,0-.5.6,5.81,5.81,0,0,0-.43,1l-2.8,7.71-9-3.28,1.4-3.84,4.78,1.74Z"/><path d="M658.78,466.23a6.15,6.15,0,0,0-1.18-.2,2.42,2.42,0,0,0-1.27.25,3.32,3.32,0,0,0-1.26,1.11,8,8,0,0,0-1,2.27c-.26.86-.51,1.87-.77,3s-.44,2.09-.57,2.82l0,.13-4.33-1.3c.11-.69.3-1.61.57-2.77s.56-2.25.87-3.28a14.39,14.39,0,0,1,1.64-3.74,6.57,6.57,0,0,1,2.2-2.14,5.76,5.76,0,0,1,2.74-.68,11.66,11.66,0,0,1,3.4.54l.79.24a12.07,12.07,0,0,1,3.13,1.4A5.61,5.61,0,0,1,665.6,466a6.51,6.51,0,0,1,.67,3,13.94,13.94,0,0,1-.69,4.05c-.28.93-.64,2-1.08,3.19s-.79,2.08-1,2.65l-4.33-1.3,0-.13c.32-.72.66-1.57,1-2.53s.72-2,1-3.07a7.45,7.45,0,0,0,.39-2.5,3.41,3.41,0,0,0-.43-1.58,2.5,2.5,0,0,0-.92-.91,5.57,5.57,0,0,0-1.1-.48Z"/></g><g id="Inside_copy" data-name="Inside copy"><g id="Logo"><path d="M513.47,272.45l57,95.61A8.51,8.51,0,0,1,571,376L517.1,497.32a2.18,2.18,0,0,1-3.91.11l-57-111.63a11,11,0,0,1-1.24-5.06v-5a3.33,3.33,0,0,1,3.33-3.32h56.52a2,2,0,0,1,2,2V398a1.74,1.74,0,0,1-1.74,1.74H499.05a1.31,1.31,0,0,0-1.12,2l14.53,24.78a.65.65,0,0,0,1.16-.08l20.66-48.63a4,4,0,0,0-.23-3.63l-23.49-39.88a1.71,1.71,0,0,0-2.75-.27l-23.54,26.6a2.45,2.45,0,0,1-3.53.15L461.16,342.1a2.48,2.48,0,0,1-.26-3.31L511,272.31A1.53,1.53,0,0,1,513.47,272.45Z"/><path d="M402.34,271.72h39.34a2.05,2.05,0,0,1,2.05,2l4.08,222.06a2.76,2.76,0,0,1-2.76,2.81H421.1a2.44,2.44,0,0,1-2.44-2.41l-3-195.88a2.55,2.55,0,0,0-2.55-2.51h-10a2.51,2.51,0,0,1-2.5-2.43L400,274.12A2.34,2.34,0,0,1,402.34,271.72Z"/><path d="M320.85,271.72h44.53a1.86,1.86,0,0,1,1.85,1.6l32,222.35a2.57,2.57,0,0,1-2.54,2.93H373.43a2.93,2.93,0,0,1-2.9-2.53l-7.4-53.64a1.13,1.13,0,0,0-2.07-.46l-35.3,54.74a4.11,4.11,0,0,1-3.46,1.89H286.59a1.54,1.54,0,0,1-1.32-2.35L353,385.5a3.73,3.73,0,0,0,.51-2.46L342,300.48a1.36,1.36,0,0,0-1.34-1.17H321.18a2.58,2.58,0,0,1-2.59-2.52l-.54-22.2A2.8,2.8,0,0,1,320.85,271.72Z"/><path d="M267.29,271.72h37.54a3.09,3.09,0,0,1,3.08,3l1.8,49.47a2.79,2.79,0,0,1-2.78,2.88H283.08a3.21,3.21,0,0,1-3.21-3.27l.4-20.6a3.51,3.51,0,0,0-3.51-3.59h-9.53a1.24,1.24,0,0,1-1.25-1.21l-.71-24.57A2,2,0,0,1,267.29,271.72Z"/><path d="M224.65,273.17,166.44,385.92a10,10,0,0,0,.17,9.55L224.36,498a1.18,1.18,0,0,0,2.07,0l58.69-115a6.83,6.83,0,0,0-.06-6.34L229.5,273.14A2.77,2.77,0,0,0,224.65,273.17Zm4.23,67.07,23,38.36a6.85,6.85,0,0,1,.3,6.5l-24.74,51a1.17,1.17,0,0,1-2.08.07l-25.32-44.62a4.16,4.16,0,0,1,0-4.1l26.77-47.22A1.17,1.17,0,0,1,228.88,340.24Z"/></g><path class="cls-3" d="M187.84,524.78H561.79M374.9,132.84c-131.56,0-238.2,108.4-238.2,242.12,0,114.51,79,213.33,189.24,236.87a54,54,0,1,1,98-.24C534.09,588,613,489.34,613.1,375c0-133.72-106.65-242.12-238.2-242.12Zm-49,479a53.89,53.89,0,0,0,98-.24"/><text class="cls-4" transform="translate(375 597)" text-anchor="middle" dominant-baseline="middle">999</text><line class="cls-3" x1="164.4" y1="261.53" x2="585.68" y2="261.53"/></g><g id="Sonol_Logo" data-name="Sonol Logo"><path d="M484.68,167.82l-103.25-25a27.15,27.15,0,0,0-12.86,0l-103.25,25A4.34,4.34,0,0,0,262,172v50.9a4.35,4.35,0,0,0,3.34,4.23l103.34,24.58a27.27,27.27,0,0,0,12.64,0l103.34-24.58a4.35,4.35,0,0,0,3.34-4.23V172A4.34,4.34,0,0,0,484.68,167.82ZM484,217.61a5.15,5.15,0,0,1-5.14,5.14H270.94a5.15,5.15,0,0,1-5.14-5.14v-40.7a5.15,5.15,0,0,1,5.14-5.14H478.86a5.15,5.15,0,0,1,5.14,5.14Z"/><path d="M474.42,180.63h-46a1.2,1.2,0,0,0-1.2,1.2v6.3a1.2,1.2,0,0,0,1.2,1.2h4.93a1.21,1.21,0,0,1,1.2,1.21v23.13a1.21,1.21,0,0,0,1.21,1.21h38.63a1.21,1.21,0,0,0,1.21-1.21V181.83A1.2,1.2,0,0,0,474.42,180.63Zm-7.92,24.29a1.21,1.21,0,0,1-1.2,1.21H445.45a1.21,1.21,0,0,1-1.2-1.21V190.83a1.2,1.2,0,0,1,1.2-1.2H465.3a1.2,1.2,0,0,1,1.2,1.2Z"/><path d="M396.58,181.82v6.32a1.19,1.19,0,0,0,1.2,1.19h4.86a1.19,1.19,0,0,1,1.19,1.2v23.15a1.2,1.2,0,0,0,1.2,1.2h7.36a1.19,1.19,0,0,0,1.19-1.2V181.82a1.19,1.19,0,0,0-1.19-1.19H397.78A1.19,1.19,0,0,0,396.58,181.82Z"/><path d="M326.77,181.82v6.32a1.19,1.19,0,0,0,1.2,1.19h4.85a1.2,1.2,0,0,1,1.2,1.2v23.15a1.2,1.2,0,0,0,1.2,1.2h7.35a1.2,1.2,0,0,0,1.2-1.2V181.82a1.19,1.19,0,0,0-1.2-1.19H328A1.19,1.19,0,0,0,326.77,181.82Z"/><path d="M355.92,207.32v6.36a1.19,1.19,0,0,0,1.19,1.2h23.28a1.19,1.19,0,0,0,1.19-1.2V181.82a1.19,1.19,0,0,0-1.19-1.19H366a1.19,1.19,0,0,0-1.2,1.19v6.32a1.19,1.19,0,0,0,1.2,1.19h4.69a1.2,1.2,0,0,1,1.2,1.2v14.4a1.2,1.2,0,0,1-1.2,1.2H357.11A1.19,1.19,0,0,0,355.92,207.32Z"/><path d="M276.36,177.92h7.78a1.19,1.19,0,0,1,1.19,1.19v.32a1.2,1.2,0,0,0,1.2,1.2h24.86a1.19,1.19,0,0,1,1.19,1.19v28.05a5,5,0,0,1-5,5H285.53a1.2,1.2,0,0,1-1.2-1.2v-6.36a1.19,1.19,0,0,1,1.2-1.19h15.86a1.19,1.19,0,0,0,1.19-1.2v-14.4a1.19,1.19,0,0,0-1.19-1.2h-25a1.19,1.19,0,0,1-1.19-1.19v-9A1.19,1.19,0,0,1,276.36,177.92Z"/></g></g></g></svg>
