<svg xmlns="http://www.w3.org/2000/svg" viewBox="0 0 750 750"><defs><style>.cls-1,.cls-5,.cls-6{fill:#fff;}.cls-2,.cls-3,.cls-4,.cls-5,.cls-6,.cls-9{stroke:#000;}.cls-2,.cls-3,.cls-4,.cls-5{stroke-miterlimit:10;}.cls-2{stroke-width:0.25px;}.cls-3,.cls-9{fill:none;}.cls-3{stroke-linecap:square;stroke-width:10px;}.cls-4{stroke-width:3px;}.cls-5,.cls-6,.cls-9{stroke-width:7.5px;}.cls-7{font-size:62px;font-family:TimesNewRomanPSMT, Times New Roman;}.cls-8{letter-spacing:-0.02em;}</style></defs><title>backface_dominos</title><g id="Layer_2" data-name="Layer 2"><g id="Outlines"><g id="Background"><circle class="cls-1" cx="375" cy="375" r="375"/></g><g id="Outside_copy" data-name="Outside copy"><path class="cls-2" d="M87.09,462.74l-.61-2.42,4.37-3.11-1.72-6.78-5.31-.55-.58-2.26,17.54,2.14.59,2.31Zm5.28-6.59L99,451.42,91,450.59Z"/><path class="cls-2" d="M90.86,475l-3-9.88,15.74-4.82.65,2.11-13.87,4.25,2.38,7.77Z"/><path class="cls-2" d="M95.38,487.78,91.91,478l15.5-5.53.74,2.08-13.66,4.88,2.73,7.65Z"/><path class="cls-2" d="M104.69,509.7l-1-2.18,3.37-3.23a4.06,4.06,0,0,0,1.18-2.05,3.7,3.7,0,0,0-.24-2.36l-1.67-3.74L99.92,499l-.9-2,15-6.7,3,6.75a11.17,11.17,0,0,1,1,3,3.59,3.59,0,0,1-.61,2.46,4.78,4.78,0,0,1-2.14,1.8,4.13,4.13,0,0,1-3,.25,4.77,4.77,0,0,1-2.48-1.9h0a4.46,4.46,0,0,1-1.64,3.64Zm3.45-14.35,2,4.5a5.37,5.37,0,0,0,1.8,2.47,2.49,2.49,0,0,0,2.4-.05q2.57-1.14,1.11-4.41L113.31,493Z"/><path class="cls-2" d="M107.41,515.05l-1-2,14.73-7.34,1,2Z"/><path class="cls-2" d="M112.74,525.7a7.72,7.72,0,0,1-.81-6.23,8.5,8.5,0,0,1,4.31-5,8.63,8.63,0,0,1,6.49-1.09,7.7,7.7,0,0,1,4.85,3.94,8.49,8.49,0,0,1,1.19,5.08,5.19,5.19,0,0,1-2.26,3.82l-1.12-2a3.23,3.23,0,0,0,1.48-2.49,6.17,6.17,0,0,0-.91-3.49,5.34,5.34,0,0,0-3.55-2.78,8.38,8.38,0,0,0-8.56,4.79,5.4,5.4,0,0,0,.5,4.49,6.28,6.28,0,0,0,4.67,3.54l2.19-1.22-2.15-3.85,1.71-1L124,528l-7.33,4.1-.76-1.37,1.23-1.35Q114.51,528.89,112.74,525.7Z"/><path class="cls-2" d="M125.93,546.64l-1.21-1.86,6.5-4.22-4.72-7.28L120,537.5l-1.2-1.86,13.81-9,1.2,1.86-5.67,3.68,4.72,7.28,5.68-3.68,1.21,1.86Z"/><path class="cls-2" d="M147.21,551.22l-3.27-4.45-11.68,8.61-1.32-1.79L142.62,545l-3.25-4.41,1.57-1.15,7.85,10.64Z"/><path class="cls-2" d="M141.26,567.28a7.78,7.78,0,0,1-2.17-5.06,5.43,5.43,0,0,1,1.91-4l1.36,1.64a3.4,3.4,0,0,0-1.1,2.94,6.06,6.06,0,0,0,1.46,3.13,5.33,5.33,0,0,0,2.49,1.82,2.33,2.33,0,0,0,2.29-.43,2.06,2.06,0,0,0,.77-2.17,17,17,0,0,0-1.64-3.88,9.39,9.39,0,0,1-1.34-4.23,3.54,3.54,0,0,1,1.39-2.78,4,4,0,0,1,3.56-.84,6.79,6.79,0,0,1,3.74,2.5,7.41,7.41,0,0,1,1.91,4.33,4.54,4.54,0,0,1-1.63,3.74l-1.38-1.66c1.39-1.44,1.28-3.14-.35-5.09a5.07,5.07,0,0,0-2.35-1.77,2.11,2.11,0,0,0-2.05.39,1.7,1.7,0,0,0-.67,1.61,10.36,10.36,0,0,0,1.17,3,30.47,30.47,0,0,1,1.53,3.33,5.63,5.63,0,0,1,.3,2.66,3.73,3.73,0,0,1-1.45,2.43,4.39,4.39,0,0,1-3.81.93A6.86,6.86,0,0,1,141.26,567.28Z"/><path class="cls-2" d="M162.23,589.49l-1.68-1.7,2-4.21a4.12,4.12,0,0,0,.37-2.34,3.62,3.62,0,0,0-1.06-2.12L159,576.21l-5,4.95-1.56-1.57L164.15,568l5.2,5.26a11.37,11.37,0,0,1,2,2.51,3.61,3.61,0,0,1,.3,2.52,4.84,4.84,0,0,1-1.36,2.44,4.17,4.17,0,0,1-2.74,1.29,4.66,4.66,0,0,1-3-.9l0,0a4.44,4.44,0,0,1-.25,4Zm-1.84-14.66,3.47,3.51a5.4,5.4,0,0,0,2.56,1.68,2.5,2.5,0,0,0,2.23-.9c1.33-1.32,1.15-2.82-.52-4.52l-3.71-3.75Z"/><path class="cls-2" d="M174.22,600.28,164.93,592l11-12.29,9,8-1.3,1.46-7.35-6.57-3.35,3.76,6.87,6.13-1.3,1.46-6.87-6.14L167.88,592l7.64,6.82Z"/><path class="cls-2" d="M181.91,606.85a7.75,7.75,0,0,1-3.17-4.5,5.41,5.41,0,0,1,1-4.29l1.67,1.32a3.43,3.43,0,0,0-.47,3.11,6.05,6.05,0,0,0,2.07,2.76,5.36,5.36,0,0,0,2.81,1.27,2.33,2.33,0,0,0,2.16-.9,2.1,2.1,0,0,0,.31-2.28,17.35,17.35,0,0,0-2.41-3.46,9.4,9.4,0,0,1-2.19-3.86,3.54,3.54,0,0,1,.79-3,4,4,0,0,1,3.31-1.56,6.76,6.76,0,0,1,4.17,1.67,7.42,7.42,0,0,1,2.77,3.84,4.56,4.56,0,0,1-.83,4l-1.69-1.34c1.07-1.69.6-3.33-1.39-4.91a5,5,0,0,0-2.67-1.24,2.09,2.09,0,0,0-1.92.8A1.71,1.71,0,0,0,186,596a10.79,10.79,0,0,0,1.77,2.67,29.14,29.14,0,0,1,2.18,2.94,5.71,5.71,0,0,1,.84,2.55,3.74,3.74,0,0,1-.92,2.67,4.39,4.39,0,0,1-3.53,1.7A6.87,6.87,0,0,1,181.91,606.85Z"/><path class="cls-2" d="M200.17,619.87,190,612.72l9.46-13.48,9.87,6.93-1.12,1.6-8.06-5.66-2.89,4.12,7.54,5.3-1.13,1.6-7.54-5.3-3.2,4.56,8.38,5.88Z"/><path class="cls-2" d="M215.2,629.28l-2-1.26,1-4.56a4.13,4.13,0,0,0-.19-2.36,3.65,3.65,0,0,0-1.53-1.81l-3.48-2.15-3.7,6L203.36,622,212,608l6.29,3.88a11.09,11.09,0,0,1,2.5,2,3.56,3.56,0,0,1,.89,2.38,4.85,4.85,0,0,1-.75,2.69,4.18,4.18,0,0,1-2.35,1.9,4.7,4.7,0,0,1-3.12-.17l0,0a4.47,4.47,0,0,1,.69,3.93ZM210,615.48l4.2,2.59a5.38,5.38,0,0,0,2.88,1,2.49,2.49,0,0,0,2-1.39c1-1.6.46-3-1.57-4.27l-4.49-2.77Z"/><path class="cls-2" d="M238.09,623,224.56,634.4l-2-1.08,2.1-17.58,2.08,1.12-2.07,14.93L236,621.87Z"/><path class="cls-2" d="M244,644l-11.27-5.3,7-14.9,10.91,5.14-.83,1.77-8.91-4.2L238.76,631,247.1,635l-.83,1.77-8.34-3.93-2.38,5,9.27,4.36Z"/><path class="cls-2" d="M253.63,630.23l4.91,2q7.89,3.19,4.84,10.74-3.13,7.72-11,4.52l-4.91-2Zm-3.39,14.28,2.82,1.14q3.36,1.36,5.22.31a7.38,7.38,0,0,0,3-3.86,7.05,7.05,0,0,0,.5-4.73q-.61-2-4-3.36L255,632.87Z"/><path class="cls-2" d="M285.71,643.93l-5.26-1.69L276,656.05l-2.11-.68,4.44-13.81-5.22-1.68.6-1.86,12.59,4.05Z"/><path class="cls-2" d="M295.31,644.23a7.54,7.54,0,0,1,4.95,3.72,9.65,9.65,0,0,1-3.16,11.94A8.23,8.23,0,0,1,286,657a8.59,8.59,0,0,1-.59-6.54,8.49,8.49,0,0,1,3.75-5.4A7.65,7.65,0,0,1,295.31,644.23Zm-3.9,14.65a5.33,5.33,0,0,0,4.42-.65,8.29,8.29,0,0,0,2.51-9.46,5.26,5.26,0,0,0-3.49-2.74,5.38,5.38,0,0,0-4.44.64,8.23,8.23,0,0,0-2.5,9.46A5.29,5.29,0,0,0,291.41,658.88Z"/><path class="cls-2" d="M321,666.89l-2.23-.41-6.23-14.37-2.37,12.77-2.06-.38,3-16.19,2.22.41,6.23,14.38,2.37-12.78,2.07.39Z"/><path class="cls-2" d="M327.33,667.81l-2.31-.34.34-2.28,2.31.34Z"/><path class="cls-2" d="M344.31,665.09a4.23,4.23,0,0,1-2,3.34,7.43,7.43,0,0,1-4.74.7l-6.22-.71,1.87-16.36,5.91.68a6.93,6.93,0,0,1,4,1.59,3.62,3.62,0,0,1,1.16,3.23,3.72,3.72,0,0,1-2.78,3.23,4.12,4.12,0,0,1,2.23,1.76A4.06,4.06,0,0,1,344.31,665.09Zm-10.53,1.64,4,.46q3.94.45,4.26-2.36a2.48,2.48,0,0,0-.66-2.24,6,6,0,0,0-3.24-1.06l-3.71-.42Zm.86-7.56,3.69.42a4.92,4.92,0,0,0,2.75-.27,2.48,2.48,0,0,0,.45-3.72,5.11,5.11,0,0,0-2.84-.94l-3.48-.4Z"/><path class="cls-2" d="M349.48,670.27l-2.33-.19.19-2.3,2.33.19Z"/><path class="cls-2" d="M373.62,671.33l-2.5-.07-1.8-5.06-7-.19-2,5L358,670.9l6.86-16.28,2.38.07Zm-4.9-6.87L366,656.74l-3,7.56Z"/><path class="cls-2" d="M385.9,671.12l-10.33.16-.26-16.47,2.21,0,.23,14.51,8.12-.13Z"/><path class="cls-2" d="M400.82,665.51a4.21,4.21,0,0,1-1.38,3.63,7.42,7.42,0,0,1-4.56,1.51l-6.24.37-1-16.44,5.93-.35a6.94,6.94,0,0,1,4.25.88,3.61,3.61,0,0,1,1.71,3,3.74,3.74,0,0,1-2.2,3.66,4.15,4.15,0,0,1,2.51,1.34A4.06,4.06,0,0,1,400.82,665.51Zm-10.53-4.18,3.7-.21a5,5,0,0,0,2.66-.74,2.14,2.14,0,0,0,.76-2,2.11,2.11,0,0,0-1-1.77,5.07,5.07,0,0,0-3-.44l-3.5.2Zm.44,7.61,4-.24c2.64-.16,3.9-1.17,3.79-3.06a2.52,2.52,0,0,0-1-2.09,5.83,5.83,0,0,0-3.37-.48l-3.73.22Z"/><path class="cls-2" d="M410.79,669.6a7.13,7.13,0,0,1-4.44-.64,4.76,4.76,0,0,1-2.1-2.41,14.18,14.18,0,0,1-.75-3.43l-1-9.47,2.2-.23,1,9.43c.23,2.15.75,3.53,1.56,4.12a5.63,5.63,0,0,0,6.43-.69c.66-.76.87-2.21.64-4.36l-1-9.44,2.21-.24,1,9.47a10.21,10.21,0,0,1-.24,4.46,4.59,4.59,0,0,1-2,2.33A8.26,8.26,0,0,1,410.79,669.6Z"/><path class="cls-2" d="M436.53,665.59l-2.06.34-2.28-13.82-2.42,14.59-2,.32-7-13,2.27,13.82-2.06.34-2.68-16.25,3.27-.54,6.69,12.81,2.26-14.28,3.27-.54Z"/><path class="cls-2" d="M452.73,662.28a7.73,7.73,0,0,1-5.5-.27,5.42,5.42,0,0,1-2.73-3.47l2.07-.5a3.37,3.37,0,0,0,2.15,2.28,6,6,0,0,0,3.46.07,5.31,5.31,0,0,0,2.73-1.43,2.35,2.35,0,0,0,.62-2.25,2.1,2.1,0,0,0-1.61-1.65,17.38,17.38,0,0,0-4.21-.23,9.47,9.47,0,0,1-4.39-.66,3.58,3.58,0,0,1-1.88-2.47,4,4,0,0,1,.81-3.57,6.78,6.78,0,0,1,3.89-2.25,7.41,7.41,0,0,1,4.73.18,4.54,4.54,0,0,1,2.64,3.12l-2.09.5q-1-2.82-4.73-1.93a5.09,5.09,0,0,0-2.62,1.34,2.1,2.1,0,0,0-.56,2,1.69,1.69,0,0,0,1.16,1.31,10.18,10.18,0,0,0,3.19.26,28.19,28.19,0,0,1,3.66.1,5.66,5.66,0,0,1,2.53.9,3.71,3.71,0,0,1,1.53,2.37,4.38,4.38,0,0,1-.84,3.83A6.81,6.81,0,0,1,452.73,662.28Z"/><path class="cls-2" d="M469.34,642.37l-5.3,1.55,4.08,13.93-2.13.62-4.08-13.92-5.26,1.54-.55-1.88,12.69-3.72Z"/><path class="cls-2" d="M478.53,654.56l-2.11.7-5.17-15.63,2.11-.7Z"/><path class="cls-2" d="M489.5,651a7.3,7.3,0,0,1-6.1-.17A10.22,10.22,0,0,1,479,639.15a7.28,7.28,0,0,1,4.49-4.13,7.49,7.49,0,0,1,4.85-.28,5.32,5.32,0,0,1,3.36,2.82l-2.14.8a3.34,3.34,0,0,0-2.15-1.84,5.1,5.1,0,0,0-3.24.23,5,5,0,0,0-3.16,3,7.34,7.34,0,0,0,.34,5.13,7.42,7.42,0,0,0,3.1,4.09,5.6,5.6,0,0,0,7-1.78,3.67,3.67,0,0,0,.33-3l2.13-.8a5.5,5.5,0,0,1-.53,4.54A7.48,7.48,0,0,1,489.5,651Z"/><path class="cls-2" d="M511.7,641.38,509,642.55l-8.72-5.13-1.37,3.34,2.29,5.22-2,.89-6.62-15.08,2-.88,3.28,7.47,4.18-10.75,2.73-1.2-3.68,9Z"/><path class="cls-2" d="M525.12,634.62,514,640.24l-7.43-14.7,10.77-5.44.88,1.75-8.79,4.44,2.27,4.49,8.22-4.16.88,1.75-8.22,4.16,2.51,5,9.14-4.62Z"/><path class="cls-2" d="M540.52,625.81l-2.07,1.2-3.56-3a4.09,4.09,0,0,0-2.17-.94,3.6,3.6,0,0,0-2.32.49l-3.54,2.05,3.54,6.09-1.92,1.11-8.26-14.24,6.4-3.71a11.17,11.17,0,0,1,2.92-1.27,3.63,3.63,0,0,1,2.52.34,4.89,4.89,0,0,1,2,1.94,4.19,4.19,0,0,1,.56,3A4.83,4.83,0,0,1,533,621.5l0,0a4.41,4.41,0,0,1,3.79,1.24Zm-14.64-1.9,4.27-2.48a5.35,5.35,0,0,0,2.26-2,2.49,2.49,0,0,0-.31-2.38c-.93-1.62-2.44-1.83-4.5-.63L523,619Z"/><path class="cls-2" d="M549,620.62a7.67,7.67,0,0,1-5.26,1.61A5.39,5.39,0,0,1,540,619.9l1.78-1.17a3.39,3.39,0,0,0,2.8,1.41,6.11,6.11,0,0,0,3.27-1.11,5.22,5.22,0,0,0,2.08-2.28,2.36,2.36,0,0,0-.18-2.33,2.08,2.08,0,0,0-2.07-1,17.54,17.54,0,0,0-4,1.21,9.31,9.31,0,0,1-4.35.88,3.54,3.54,0,0,1-2.61-1.68,4,4,0,0,1-.45-3.63,6.74,6.74,0,0,1,2.89-3.45,7.41,7.41,0,0,1,4.51-1.43,4.54,4.54,0,0,1,3.54,2l-1.79,1.19q-1.93-2.31-5.11-.21a5.14,5.14,0,0,0-2,2.15,2.13,2.13,0,0,0,.16,2.08,1.73,1.73,0,0,0,1.54.84,10.27,10.27,0,0,0,3.08-.84,29.76,29.76,0,0,1,3.48-1.16,5.65,5.65,0,0,1,2.68,0,3.71,3.71,0,0,1,2.25,1.71A4.38,4.38,0,0,1,552,617,6.82,6.82,0,0,1,549,620.62Z"/><path class="cls-2" d="M570.54,604.53l-8.16,6.34-10.11-13,1.75-1.36,8.9,11.45,6.42-5Z"/><path class="cls-2" d="M572.57,583.7l-4.18,3.61,9.48,11-1.68,1.45-9.48-11-4.15,3.58-1.28-1.48,10-8.64Z"/><path class="cls-2" d="M572.86,580.78l3.8-3.69q6.09-5.94,11.78-.1t-.3,11.89l-3.79,3.7Zm11.71,8.86,2.18-2.12c1.73-1.69,2.53-3.24,2.38-4.65a7.33,7.33,0,0,0-2.33-4.29,7.06,7.06,0,0,0-4.13-2.36c-1.38-.16-2.94.6-4.68,2.3l-2.18,2.12Z"/><path class="cls-2" d="M598.44,578.41l-1.6,1.7-1.68-1.58,1.6-1.7Z"/><path class="cls-2" d="M595.89,555.93q3.48-4.18,10.05,1.25t3.07,9.61q-3.46,4.19-10-1.23T595.89,555.93Zm11.84,9.8a2.61,2.61,0,0,0,.37-2.81,12.09,12.09,0,0,0-3.58-4,12.26,12.26,0,0,0-4.64-2.78,2.65,2.65,0,0,0-3.06,3.69,17.74,17.74,0,0,0,8.22,6.81A2.59,2.59,0,0,0,607.73,565.73Z"/><path class="cls-2" d="M611.34,548.65a4,4,0,0,1,2.63-1,4.39,4.39,0,0,1,2.63.93,4.74,4.74,0,0,1,2,3.48,6.29,6.29,0,0,1-4.52,6.32,4.49,4.49,0,0,1-3.64-.73l1.32-1.78a3,3,0,0,0,2.18.59,3.59,3.59,0,0,0,2.79-3.88,3.47,3.47,0,0,0-1.44-2.2,3.09,3.09,0,0,0-2.47-.68,3.9,3.9,0,0,0-2.29,1.67l-.49.66-1.32-1,.29-.39q1.86-2.5-.4-4.2a2.58,2.58,0,0,0-1.94-.59A2.65,2.65,0,0,0,605,547a2.6,2.6,0,0,0,.4,3.84l-1.32,1.77a4.54,4.54,0,0,1-1.59-3.2,5.29,5.29,0,0,1,1.16-3.37,5,5,0,0,1,3.08-2.13,4,4,0,0,1,3.26.78,3.75,3.75,0,0,1,1.25,1.65A3.56,3.56,0,0,1,611.34,548.65Z"/><path class="cls-2" d="M621.27,541.62l-3.54,5.17-1.68-1.15,3.54-5.17Z"/><path class="cls-2" d="M619.69,534.9a4.92,4.92,0,0,1,.81-3.15,5.15,5.15,0,0,1,3.17-2.31,5.07,5.07,0,0,1,4.11.75,5.94,5.94,0,0,1,2.73,3.56,5.38,5.38,0,0,1-.79,4.39,5.75,5.75,0,0,1-2.9,2.45,4.77,4.77,0,0,1-3.85-.35l1.18-1.89a3.23,3.23,0,0,0,2.44.29,3.2,3.2,0,0,0,1.73-1.38,3.13,3.13,0,0,0,.35-2.75,4.31,4.31,0,0,0-1.91-2.33,3.69,3.69,0,0,0-2.83-.62,3.32,3.32,0,0,0-2.2,1.62,3.9,3.9,0,0,0-.46,3.28l-.9,1.43-7-5.22,4.76-7.58,1.65,1-3.78,6Z"/><path class="cls-2" d="M629.75,519.73a4.06,4.06,0,0,1,2.48-1.3A4.4,4.4,0,0,1,635,519a4.76,4.76,0,0,1,2.46,3.19,6.29,6.29,0,0,1-3.66,6.86,4.57,4.57,0,0,1-3.71-.26l1.08-1.93a3,3,0,0,0,2.23.29,3.08,3.08,0,0,0,1.93-1.64,3.15,3.15,0,0,0,.34-2.56,3.46,3.46,0,0,0-1.72-2,3,3,0,0,0-2.53-.36,4,4,0,0,0-2.06,1.95l-.4.72-1.44-.81.24-.43q1.53-2.71-.94-4.1a2.53,2.53,0,0,0-2-.34,2.65,2.65,0,0,0-1.52,1.35,2.61,2.61,0,0,0,.89,3.77l-1.08,1.93a4.53,4.53,0,0,1-2-3,5.32,5.32,0,0,1,.71-3.5,5,5,0,0,1,2.78-2.51,4,4,0,0,1,3.34.35,3.75,3.75,0,0,1,1.45,1.48A3.58,3.58,0,0,1,629.75,519.73Z"/><path class="cls-2" d="M635.81,508a4.09,4.09,0,0,1,2.41-1.43,4.46,4.46,0,0,1,2.75.45,4.77,4.77,0,0,1,2.62,3.07,6.28,6.28,0,0,1-3.33,7,4.5,4.5,0,0,1-3.71-.07l1-2a2.91,2.91,0,0,0,2.24.18,3.08,3.08,0,0,0,1.84-1.74,3.13,3.13,0,0,0,.22-2.57,3.47,3.47,0,0,0-1.82-1.9,3,3,0,0,0-2.55-.23,3.92,3.92,0,0,0-2,2.05l-.37.73-1.47-.74.21-.43q1.4-2.81-1.14-4.06a2.53,2.53,0,0,0-2-.24,2.65,2.65,0,0,0-1.45,1.43,2.59,2.59,0,0,0,1.07,3.71l-1,2a4.49,4.49,0,0,1-2.13-2.87,5.23,5.23,0,0,1,.53-3.52,5.1,5.1,0,0,1,2.65-2.65,4,4,0,0,1,3.35.19,3.77,3.77,0,0,1,1.53,1.41A3.65,3.65,0,0,1,635.81,508Z"/><path class="cls-2" d="M650.77,497l-4.45,10.12a4.9,4.9,0,0,1-2.25-2,17.43,17.43,0,0,1-1.7-4.53,22.57,22.57,0,0,0-1.54-4.46,4.31,4.31,0,0,0-2.1-1.94,2.82,2.82,0,0,0-2.28-.13,3.45,3.45,0,0,0-1.76,4,3.26,3.26,0,0,0,1.71,1.84l-.89,2A5,5,0,0,1,633,499a5.47,5.47,0,0,1,.33-4,5.34,5.34,0,0,1,2.76-3,4.47,4.47,0,0,1,3.58.09,5.33,5.33,0,0,1,2.5,2.2,25,25,0,0,1,1.9,5.18c.69,2.48,1.25,3.83,1.67,4.05l3.25-7.38Z"/><path class="cls-2" d="M644.34,489.13A5,5,0,0,1,644,485a4.69,4.69,0,0,1,2.67-2.76,5.27,5.27,0,0,1,4.07,0A5.88,5.88,0,0,1,654,485a4.76,4.76,0,0,1,.18,4.13,4.93,4.93,0,0,1-3.44,3.2,9.93,9.93,0,0,1-6.07-.73q-8.43-3.24-6.32-8.75a4.91,4.91,0,0,1,2.11-2.59,4.53,4.53,0,0,1,3.43-.38l-.8,2.06a2.43,2.43,0,0,0-3.23,1.62,2.81,2.81,0,0,0,.6,2.89A10.22,10.22,0,0,0,644.34,489.13Zm1.52.61a8.62,8.62,0,0,0,4.42.64,2.89,2.89,0,0,0,2.32-1.82,2.67,2.67,0,0,0-.23-2.47,4.43,4.43,0,0,0-2.26-1.76,4.25,4.25,0,0,0-2.85-.19,2.78,2.78,0,0,0-1.81,1.74A4.8,4.8,0,0,0,645.86,489.74Z"/><path class="cls-2" d="M648.93,476.78a5,5,0,0,1-.5-4.16,4.69,4.69,0,0,1,2.54-2.88,5.28,5.28,0,0,1,4.07-.17,5.9,5.9,0,0,1,3.34,2.62,4.77,4.77,0,0,1,.36,4.12,4.9,4.9,0,0,1-3.29,3.35,9.92,9.92,0,0,1-6.09-.44q-8.58-2.87-6.71-8.46a4.92,4.92,0,0,1,2-2.69,4.54,4.54,0,0,1,3.41-.53l-.7,2.1a2.42,2.42,0,0,0-3.15,1.76,2.81,2.81,0,0,0,.73,2.86A10.25,10.25,0,0,0,648.93,476.78Zm1.55.54a8.45,8.45,0,0,0,4.43.43,2.87,2.87,0,0,0,2.24-1.92,2.64,2.64,0,0,0-.34-2.45,4.43,4.43,0,0,0-2.34-1.66,4.21,4.21,0,0,0-2.86-.05,2.74,2.74,0,0,0-1.73,1.82A4.82,4.82,0,0,0,650.48,477.32Z"/><path class="cls-2" d="M663.83,458.43l-3,10.64a5,5,0,0,1-2.51-1.7,17.87,17.87,0,0,1-2.3-4.26,21.84,21.84,0,0,0-2.13-4.2,4.36,4.36,0,0,0-2.35-1.64,2.9,2.9,0,0,0-2.28.18,3.47,3.47,0,0,0-1.19,4.22,3.23,3.23,0,0,0,2,1.6l-.61,2.14a5,5,0,0,1-2.89-2.51,5.43,5.43,0,0,1-.21-4,5.32,5.32,0,0,1,2.32-3.34,4.43,4.43,0,0,1,3.55-.4,5.26,5.26,0,0,1,2.78,1.83,24.67,24.67,0,0,1,2.59,4.88q1.54,3.53,2.22,3.78l2.2-7.76Z"/><path class="cls-3" d="M78.9,427.85a312.8,312.8,0,0,1-4.38-52.21,307.07,307.07,0,0,1,50.59-169.5"/><path class="cls-3" d="M624,205.06a307.11,307.11,0,0,1,51.29,170.58,311.84,311.84,0,0,1-4.38,52.21"/><path class="cls-4" d="M221.14,159.32l-5.43,4.79L203,157a12.69,12.69,0,0,0-7.13-1.68,10.76,10.76,0,0,0-6.66,2.79L180,166.26l14.59,16.53-5,4.43-34.11-38.64,16.8-14.82a32.66,32.66,0,0,1,8-5.48,10.94,10.94,0,0,1,7.78-.35,15.4,15.4,0,0,1,7.32,4.74,13.32,13.32,0,0,1,3.63,8.71,14.26,14.26,0,0,1-3.14,9l.1.1q5.1-2.2,12.19,1.67Zm-45.23,2.36,11.21-9.89c3.12-2.76,4.94-5.25,5.46-7.5s-.3-4.59-2.47-7q-5.82-6.59-13.94.58l-12,10.57Z"/><path class="cls-4" d="M265.48,134.23l-33.15,18-24.58-45.3,32.13-17.43,2.91,5.38L216.56,109.1l7.51,13.84,24.53-13.31,2.92,5.38L227,128.32l8.32,15.33,27.27-14.8Z"/><path class="cls-4" d="M317.53,117.15l-7.23,2.21-10.2-13.27-20.26,6.21-.75,16.63L272.33,131l3.46-55,6.9-2.11Zm-20.9-15.66L281.11,81.24,280,106.59Z"/><path class="cls-4" d="M357.48,112.24l-31.05,3.88L320,65l6.64-.83,5.64,45.07,24.41-3Z"/><path class="cls-4" d="M442.33,67.16l18.23,4.91a39.48,39.48,0,0,1,9.74,3.84,11.25,11.25,0,0,1,5.08,6.65,16.21,16.21,0,0,1,.09,9.11q-2,7.55-7.78,10.17t-14.65.24l-12.29-3.31-5.37,19.89-6.46-1.74Zm0,25.7L454.7,96.2q6.23,1.67,9.52,0c2.19-1.11,3.69-3.15,4.5-6.14a10.09,10.09,0,0,0,0-5.69,6.61,6.61,0,0,0-2.93-3.92,27.24,27.24,0,0,0-6.32-2.36l-12.22-3.3Z"/><path class="cls-4" d="M521.63,94.91a22.6,22.6,0,0,1,12.09,14.48q2.64,9.6-2.88,20.28t-14.9,14.07q-9.36,3.39-18.8-1.5T485,127.7q-2.67-9.63,2.84-20.28t14.93-14Q512.16,90,521.63,94.91ZM499.76,137a15.85,15.85,0,0,0,13.57.85q6.82-2.64,11.35-11.38t2.75-15.84A15.65,15.65,0,0,0,519,100.12a16,16,0,0,0-13.63-.88q-6.86,2.63-11.38,11.37t-2.71,15.83A15.76,15.76,0,0,0,499.76,137Z"/><path class="cls-4" d="M546.2,176q-8.13-7.28-8.33-17.22t7.87-18.95q8.09-9,17.92-10t17.93,6.31q6.81,6.1,8.33,13.48A16.26,16.26,0,0,1,587,163.08l-5.17-4.63a10.16,10.16,0,0,0,1.93-8.77q-1.1-4.78-6-9.16a16,16,0,0,0-13-4.35q-7.2.87-13.81,8.26t-6.64,14.66A16,16,0,0,0,550,171.58q8.15,7.3,17,5.37l5.23-5.84-9.95-8.91,4.1-4.58,14.78,13.23-17.54,19.6-3.52-3.16,2.3-5.21Q554.42,183.34,546.2,176Z"/><rect x="612.59" y="175.53" width="6.36" height="20.08" transform="translate(331.68 -391.41) rotate(47.01)"/><rect x="603.51" y="165.79" width="6.36" height="20.08" transform="translate(321.67 -387.86) rotate(47.01)"/><rect x="139.46" y="162.37" width="6.36" height="20.08" transform="translate(-80.77 159.7) rotate(-47.14)"/><rect x="130.4" y="172.13" width="6.36" height="20.08" transform="translate(-90.81 156.18) rotate(-47.14)"/></g><g id="Inside_copy" data-name="Inside copy"><path class="cls-5" d="M424,611.59C534.09,588,613,489.34,613.1,375c0-133.72-106.65-242.12-238.2-242.12h0c-131.56,0-238.2,108.4-238.2,242.12,0,114.51,79,213.33,189.24,236.87"/><path class="cls-6" d="M424,611.59A53.89,53.89,0,1,0,374.9,643.2,54,54,0,0,0,424,611.59Z"/><g id="Logo_English" data-name="Logo English"><path d="M170,277.5l-.37,210.75h25.25l.25-82.87L241,325.13Zm24.88,81.88V323.63l16.75,10.75Z"/><path d="M276.19,277.5,217.83,388l56.5,99.78,54.09-110.53Zm-2,151.33-21.84-42.16,23.84-43.84,22,35.84Z"/><polygon points="382.83 277.5 429.63 342.31 406.23 360.13 382.83 337.63 361.63 376.88 383.38 418.44 394.88 398.56 376.69 398.56 376.69 370.88 435.13 370.88 380.69 488.25 329.33 371.96 382.83 277.5"/><polygon points="438.92 277.5 464.67 277.5 463.48 488.35 438.92 488.25 438.92 277.5"/><polygon points="485.58 277.5 524.5 327.04 563.63 277.5 574 488.25 548.42 488.35 542.25 347.88 524.31 375 505.06 349.19 498.88 488.25 474 488.25 485.58 277.5"/></g><g id="DominosPog"><path d="M243.49,240.25H235l.05-6.76c0-.64,0-1.61.08-2.89s.11-2.31.2-3.1a27.33,27.33,0,0,1-1.69,2.82c-.79,1.19-1.38,2.06-1.78,2.62l-5.23,7.31h-9.95l15.78-20.41A16.26,16.26,0,0,0,234.2,217a13.08,13.08,0,0,0,1.05-3.22l.4-2a3.49,3.49,0,0,0-.43-3.05,3.64,3.64,0,0,0-2.82-.93,13.37,13.37,0,0,0-2.56.29,24.84,24.84,0,0,0-2.42.61h-.28l2.45-12.47a13.71,13.71,0,0,1,3-.66,28.35,28.35,0,0,1,3.69-.24q5.52,0,7.57,3.51c1.37,2.35,1.59,5.87.67,10.59l-.95,4.81a24.21,24.21,0,0,0-.4,3.07c-.07,1-.09,2.08-.07,3.38Z"/><path d="M260,240.25h-8.37l5.9-30.14a2.15,2.15,0,0,0-.25-1.68,1.5,1.5,0,0,0-1.34-.64,19.54,19.54,0,0,0-2.38.12c-.64.08-1.23.18-1.78.29l2.44-12.47c.51-.09,1.29-.18,2.33-.27s2.05-.14,3-.14c2.83,0,4.86,1.05,6.11,3.17a10.93,10.93,0,0,1,1,7.84Z"/><path d="M301.07,219.36a48.62,48.62,0,0,1-2.76,9.42,21.82,21.82,0,0,1-4.29,6.79,17,17,0,0,1-6.24,4.14,23.77,23.77,0,0,1-8.62,1.41q-3,0-6.81-.33t-5.67-.68l2.45-12.54h.28c1.55.25,3.37.5,5.47.73a60.79,60.79,0,0,0,6.62.34,13,13,0,0,0,5.21-.9,9,9,0,0,0,3.25-2.28,10,10,0,0,0,1.81-2.93,20.32,20.32,0,0,0,1-3.38l.36-1.87a20.47,20.47,0,0,0,.37-3.24,6.15,6.15,0,0,0-.69-3.06,5.2,5.2,0,0,0-2.33-2.33,10.76,10.76,0,0,0-4.88-.86c-.73,0-1.49,0-2.28.05s-1.61.09-2.48.16l-.49,2.49a5.83,5.83,0,0,0,0,2.89c.22.64.87,1,1.94,1a8.74,8.74,0,0,0,1-.07,2.23,2.23,0,0,0,.86-.28h.28l-1.59,8.14a12.79,12.79,0,0,1-1.37.28,12.26,12.26,0,0,1-1.77.1c-3.18,0-5.36-1-6.56-3s-1.41-5-.65-8.83l2.8-14.31q2.19-.37,5.89-.69t7-.31a20,20,0,0,1,8,1.38,9.71,9.71,0,0,1,4.67,4.16,14.73,14.73,0,0,1,1.63,6.72,42.77,42.77,0,0,1-.93,9.49Z"/><path d="M310,196.39h20.28a20.7,20.7,0,0,1,7,1,9.39,9.39,0,0,1,4.65,3.67A14.32,14.32,0,0,1,344,208a41,41,0,0,1-.94,10.94,44.58,44.58,0,0,1-3.4,10.9,22.81,22.81,0,0,1-4.79,6.84,16.29,16.29,0,0,1-5.95,3.59,21.84,21.84,0,0,1-6.85,1,18.56,18.56,0,0,1-6.4-1,9.2,9.2,0,0,1-4.58-3.59,14.73,14.73,0,0,1-2.12-6.82,39.18,39.18,0,0,1,.87-10.92l2-10.08h-4.26Zm10.18,12.47-2,10.08a18.22,18.22,0,0,0-.4,4.18,6.84,6.84,0,0,0,.85,3.06,4.74,4.74,0,0,0,2.13,2,8.63,8.63,0,0,0,3.72.67,10.48,10.48,0,0,0,4-.71,7.83,7.83,0,0,0,2.93-2,10.46,10.46,0,0,0,2.06-3.08,20.37,20.37,0,0,0,1.22-4.16,17.9,17.9,0,0,0,.36-4.08,7,7,0,0,0-.86-3.26,5.14,5.14,0,0,0-2.39-2,10,10,0,0,0-4-.69Z"/><path d="M367.64,186.34l-10.91,20.41H351l8-20.41Z"/><path d="M371.74,240.25h-8.37l5.9-30.14a2.15,2.15,0,0,0-.25-1.68,1.5,1.5,0,0,0-1.34-.64,19.65,19.65,0,0,0-2.38.12c-.64.08-1.23.18-1.78.29L366,195.73c.51-.09,1.29-.18,2.33-.27s2-.14,3-.14c2.83,0,4.86,1.05,6.11,3.17a10.93,10.93,0,0,1,.95,7.84Z"/><path d="M397.38,240.25H377.66L380,228.12h11.35l3-15.2a6.42,6.42,0,0,0-.24-4c-.49-1-1.51-1.49-3.08-1.49a12.26,12.26,0,0,0-2.53.3c-.94.19-1.75.39-2.44.6h-.28l2.37-12.12a13.85,13.85,0,0,1,3-.66,28.62,28.62,0,0,1,3.7-.24,9.88,9.88,0,0,1,4.68,1.09,6.76,6.76,0,0,1,3.07,3.24,12.56,12.56,0,0,1,1.12,5.23,34.27,34.27,0,0,1-.74,6.89Z"/><path d="M420.21,221.16h-8.36l2.16-11a2.15,2.15,0,0,0-.25-1.68,1.5,1.5,0,0,0-1.34-.64,19.65,19.65,0,0,0-2.38.12c-.64.08-1.23.18-1.78.29l2.44-12.47c.51-.09,1.29-.18,2.33-.27s2.05-.14,3-.14c2.83,0,4.86,1.05,6.11,3.17a10.93,10.93,0,0,1,.95,7.84Z"/><path d="M439.15,201.52a20.5,20.5,0,0,1,5.62-4.52,13.38,13.38,0,0,1,6.48-1.68,11.72,11.72,0,0,1,5.54,1.19,8.07,8.07,0,0,1,3.5,3.76,16.26,16.26,0,0,1,1.36,6.53,43.19,43.19,0,0,1-.92,9.2L456,240.25h-18.7l2.44-12.47h10.33l2.27-11.61a17.15,17.15,0,0,0,.39-3.77,6.25,6.25,0,0,0-.58-2.64,3.22,3.22,0,0,0-1.47-1.49,5.1,5.1,0,0,0-2.28-.48,6,6,0,0,0-3.17.88,10.64,10.64,0,0,0-2.63,2.27,15.49,15.49,0,0,0-2.08,3.19c-.56,1.15-1,2.21-1.41,3.19l-8.75,22.93h-8.57l9.92-25.91c.06-.17.13-.34.2-.52l.2-.52-2.5-16.91h8.85Z"/><path d="M475.07,240.25H466.7l5.9-30.14a2.11,2.11,0,0,0-.24-1.68,1.53,1.53,0,0,0-1.34-.64,19.72,19.72,0,0,0-2.39.12c-.63.08-1.23.18-1.78.29l2.45-12.47c.51-.09,1.28-.18,2.32-.27s2.05-.14,3-.14c2.82,0,4.86,1.05,6.1,3.17a10.93,10.93,0,0,1,.95,7.84Z"/><path d="M517.12,208.86h-4.06l-6.14,31.39h-8.37l6.15-31.39H485.82l2.44-12.47h31.3Z"/></g><text class="cls-7" transform="translate(329.56 608.86)"><tspan class="cls-8">99</tspan><tspan x="59.67" y="0">9</tspan></text><line class="cls-9" x1="187.84" y1="524.78" x2="561.79" y2="524.78"/><line class="cls-9" x1="169.39" y1="252.53" x2="580.41" y2="252.53"/></g></g></g></svg>